<?xml version="1.0" encoding="utf-8"?>
<!-- Generator: Adobe Illustrator 15.0.0, SVG Export Plug-In  -->
<!DOCTYPE svg PUBLIC "-//W3C//DTD SVG 1.1//EN" "http://www.w3.org/Graphics/SVG/1.1/DTD/svg11.dtd" [
	<!ENTITY ns_flows "http://ns.adobe.com/Flows/1.0/">
]>
<svg version="1.1"
	 xmlns="http://www.w3.org/2000/svg" xmlns:xlink="http://www.w3.org/1999/xlink" xmlns:a="http://ns.adobe.com/AdobeSVGViewerExtensions/3.0/"
	 x="0px" y="0px" width="183px" height="43px" viewBox="-5.045 -0.476 183 43" enable-background="new -5.045 -0.476 183 43"
	 xml:space="preserve">
<defs>
</defs>
<path fill="#FF2A70" d="M13.292,8.025c-0.092-0.437-0.16-0.942-0.199-1.516c-0.041-0.573-0.027-1.413,0.037-2.521
	c0.042-0.708,0.098-1.42,0.169-2.142C13.372,1.125,13.54,0.51,13.806,0c1.423,0.375,2.944,0.732,4.562,1.068
	c1.616,0.337,3.271,0.652,4.965,0.946c1.693,0.293,3.393,0.489,5.098,0.589c1.705,0.099,3.351,0.196,4.938,0.289
	c2.175,0.127,3.926,0.193,5.253,0.196c0.429,0.725,0.675,1.567,0.737,2.524c0.063,0.958,0.069,1.851,0.021,2.674
	c-3.461,1.164-6.767,2.708-9.916,4.632c-3.152,1.924-6.028,3.958-8.632,6.103c-2.603,2.144-4.867,4.28-6.79,6.407
	c-1.925,2.125-3.375,3.99-4.354,5.589c0.537-0.073,1.084-0.136,1.649-0.19c0.562-0.056,1.17-0.1,1.821-0.131
	c0.652-0.033,1.375-0.059,2.174-0.081c0.796-0.024,1.71-0.005,2.739,0.056c1.44,0.082,2.71,0.043,3.811-0.121
	c1.101-0.162,2.041-0.354,2.821-0.565c0.779-0.213,1.404-0.42,1.873-0.619c0.468-0.2,0.81-0.372,1.025-0.513
	c0.102,0.271,0.218,0.67,0.35,1.203c0.131,0.531,0.244,1.115,0.34,1.748c0.095,0.634,0.168,1.281,0.218,1.939
	c0.051,0.658,0.059,1.266,0.027,1.816c-0.017,0.293-0.036,0.488-0.056,0.588c-0.021,0.104-0.05,0.21-0.085,0.324
	c-1.323-0.078-2.649-0.227-3.979-0.443c-1.33-0.22-2.655-0.363-3.978-0.441c-1.763-0.104-3.598-0.115-5.506-0.035
	c-1.907,0.08-3.747,0.27-5.518,0.563c-1.773,0.293-3.404,0.706-4.896,1.24c-1.49,0.531-2.703,1.197-3.634,1.999
	c-0.191-0.778-0.396-1.447-0.613-2.007c-0.218-0.559-0.304-1.223-0.259-1.986c0.045-0.766,0.235-1.367,0.57-1.807
	c0.335-0.438,0.776-0.788,1.322-1.053c1.911-2.429,4.065-4.818,6.458-7.174c2.395-2.357,4.938-4.624,7.632-6.798
	c2.694-2.175,5.468-4.235,8.326-6.18c2.857-1.945,5.703-3.705,8.539-5.282c-1.765-0.104-3.631-0.213-5.6-0.327
	c-1.382-0.082-2.749-0.162-4.101-0.241c-1.349-0.078-2.634-0.071-3.848,0.025c-1.216,0.094-2.339,0.268-3.371,0.522
	C14.905,7.3,14.023,7.626,13.292,8.025z"/>
<path fill="#FF2A70" d="M50.598,16.998c0.294,0.017,0.637,0.088,1.026,0.214c0.391,0.127,0.743,0.28,1.059,0.461
	c0.313,0.179,0.574,0.364,0.785,0.554c0.21,0.188,0.311,0.359,0.303,0.503c-0.661,1.201-1.278,2.412-1.85,3.631
	c-0.574,1.222-1.069,2.394-1.489,3.521c-0.418,1.125-0.755,2.184-1.004,3.17c-0.25,0.988-0.395,1.852-0.438,2.584
	c-0.048,0.824-0.001,1.514,0.144,2.066c0.146,0.555,0.415,0.963,0.814,1.219c-0.366,0.219-0.833,0.381-1.4,0.496
	c-0.567,0.114-1.072,0.156-1.511,0.131c-1.589-0.092-2.318-1.226-2.191-3.4c0.098-1.678,0.791-3.938,2.078-6.781
	c-0.667,1.311-1.416,2.538-2.251,3.68c-0.833,1.141-1.673,2.142-2.519,3.004c-0.847,0.859-1.69,1.552-2.532,2.074
	c-0.842,0.523-1.604,0.823-2.288,0.902c-1.087-0.063-1.941-0.609-2.56-1.639c-0.618-1.027-0.881-2.311-0.792-3.846
	c0.097-1.654,0.551-3.373,1.362-5.162c0.813-1.787,1.817-3.435,3.01-4.934c1.195-1.5,2.468-2.736,3.822-3.708
	c1.355-0.973,2.635-1.424,3.84-1.354c0.289,0.106,0.608,0.302,0.961,0.586c0.353,0.286,0.687,0.615,1.004,0.986
	c0.318,0.372,0.583,0.747,0.798,1.128c0.213,0.379,0.327,0.703,0.341,0.97c-1.188,0.104-2.433,0.606-3.739,1.502
	c-1.306,0.893-2.506,1.994-3.6,3.298c-1.093,1.305-2.01,2.714-2.747,4.23c-0.738,1.517-1.146,2.948-1.226,4.297
	c-0.032,0.558,0.152,0.922,0.556,1.095c0.863-0.13,1.891-0.798,3.083-2.013c1.19-1.213,2.658-3.111,4.402-5.693
	c0.325-0.51,0.689-1.079,1.096-1.703c0.404-0.625,0.819-1.281,1.243-1.962c0.422-0.686,0.839-1.377,1.249-2.074
	C49.849,18.333,50.233,17.655,50.598,16.998z"/>
<path fill="#FF2A70" d="M81.343,23.108c-0.47-0.027-1.061,0.229-1.77,0.762c-0.71,0.535-1.481,1.23-2.312,2.082
	c-0.832,0.854-1.698,1.799-2.6,2.838c-0.901,1.041-1.772,2.075-2.615,3.104c-0.842,1.03-1.628,1.995-2.358,2.896
	c-0.732,0.905-1.35,1.623-1.853,2.154c-0.631-0.305-1.167-0.725-1.607-1.27c-0.44-0.539-0.74-1.198-0.901-1.977
	c0.2-0.9,0.461-1.834,0.783-2.802c0.322-0.968,0.726-1.966,1.215-2.997c0.488-1.035,1.082-2.109,1.782-3.232
	c0.699-1.123,1.542-2.302,2.529-3.54c-0.441-0.026-1.062,0.241-1.86,0.799c-0.801,0.559-1.669,1.291-2.607,2.195
	c-0.937,0.904-1.911,1.926-2.922,3.063c-1.01,1.137-1.959,2.255-2.851,3.354c-1.178,1.469-2.16,2.752-2.947,3.858
	c-0.788,1.104-1.348,1.754-1.683,1.94c-0.733-0.604-1.226-1.235-1.482-1.901c-0.255-0.664-0.434-1.396-0.534-2.199
	c0.069-0.702,0.231-1.577,0.484-2.626c0.252-1.047,0.589-2.117,1.008-3.215c0.8-2.105,1.799-4.188,2.996-6.239
	c1.197-2.056,2.347-3.936,3.45-5.64c0.812,0.225,1.539,0.547,2.178,0.968c0.639,0.421,1.304,1.02,1.996,1.797
	c-0.347,0.896-0.858,1.831-1.537,2.809c-0.676,0.979-1.385,2.007-2.126,3.083c-0.742,1.08-1.426,2.188-2.053,3.334
	c-0.626,1.143-1.064,2.312-1.312,3.506c0.893-1.129,1.948-2.424,3.17-3.887c1.221-1.461,2.467-2.834,3.736-4.117
	c1.27-1.28,2.52-2.358,3.75-3.231c1.231-0.871,2.317-1.28,3.257-1.225c0.354,0.02,0.731,0.102,1.136,0.243
	c0.405,0.142,0.779,0.311,1.122,0.508c0.343,0.198,0.627,0.385,0.852,0.56c0.225,0.174,0.352,0.308,0.375,0.398
	c-0.182,0.578-0.575,1.359-1.177,2.342c-0.604,0.981-1.247,2.015-1.928,3.095c-0.684,1.081-1.319,2.129-1.91,3.141
	c-0.59,1.014-0.947,1.826-1.073,2.438c1.556-1.886,3.013-3.592,4.371-5.121c1.357-1.526,2.628-2.831,3.813-3.915
	c1.184-1.081,2.271-1.9,3.264-2.462c0.991-0.562,1.913-0.818,2.765-0.768c0.587,0.035,1.13,0.22,1.627,0.56
	c0.494,0.339,0.83,0.808,1,1.409c-0.315,0.866-0.812,1.897-1.485,3.099c-0.676,1.199-1.361,2.465-2.059,3.795
	c-0.698,1.33-1.327,2.643-1.89,3.938c-0.562,1.295-0.874,2.473-0.936,3.527c-0.036,0.621,0.028,1.027,0.194,1.229
	c0.166,0.201,0.409,0.31,0.732,0.329c0.354,0.021,0.688-0.023,1.004-0.143c0.316-0.11,0.546-0.164,0.694-0.156
	c0.169,0.13,0.264,0.281,0.284,0.459c0.018,0.179,0.024,0.344,0.015,0.488c-0.616,0.434-1.241,0.789-1.875,1.062
	c-0.636,0.274-1.336,0.39-2.1,0.343c-0.706-0.041-1.28-0.191-1.721-0.453c-0.443-0.263-0.798-0.606-1.067-1.033
	c-0.271-0.43-0.448-0.912-0.535-1.447c-0.088-0.534-0.112-1.107-0.077-1.725c0.058-1.002,0.25-1.981,0.573-2.951
	c0.321-0.967,0.691-1.887,1.112-2.76c0.418-0.875,0.856-1.688,1.314-2.443C80.619,24.385,81.013,23.709,81.343,23.108z"/>
<path fill="#FF2A70" d="M100.849,36.836c-0.533-0.502-0.873-1.111-1.022-1.828c-0.149-0.719-0.21-1.325-0.181-1.824
	c0.037-0.618,0.141-1.143,0.313-1.576c-0.117-0.006-0.396,0.214-0.835,0.659c-0.44,0.444-0.919,0.976-1.44,1.59
	c-0.522,0.617-1.039,1.217-1.545,1.81c-0.506,0.586-0.887,1.021-1.139,1.299c-0.404,0.389-0.783,0.688-1.137,0.904
	c-0.352,0.213-0.633,0.332-0.84,0.346c-0.471-0.025-0.957-0.139-1.461-0.328c-0.508-0.194-0.978-0.452-1.414-0.774
	c-0.439-0.321-0.814-0.698-1.129-1.135c-0.315-0.435-0.515-0.919-0.603-1.459c0.048-0.823,0.108-1.498,0.187-2.024
	c0.076-0.525,0.203-1.095,0.387-1.701c0.33-1.104,0.793-2.344,1.391-3.727c0.596-1.38,1.273-2.734,2.029-4.061
	c0.757-1.328,1.588-2.563,2.495-3.705c0.905-1.142,1.851-2.023,2.831-2.645c0.265,0.016,0.572,0.056,0.924,0.122
	c0.35,0.064,0.701,0.167,1.064,0.306c0.357,0.139,0.705,0.299,1.033,0.48c0.328,0.182,0.604,0.411,0.822,0.689
	c-0.282,0.279-1.008,1.226-2.18,2.837c-1.17,1.611-2.51,3.955-4.018,7.021c-0.164,0.314-0.369,0.775-0.611,1.381
	c-0.24,0.604-0.484,1.238-0.729,1.902c-0.248,0.666-0.454,1.314-0.623,1.955c-0.17,0.64-0.267,1.15-0.289,1.533
	c-0.014,0.234,0.013,0.412,0.08,0.533c0.065,0.125,0.127,0.215,0.183,0.276c0.451-0.149,1.037-0.604,1.761-1.356
	c0.724-0.754,1.735-1.92,3.036-3.494c0.318-0.396,0.69-0.846,1.119-1.35c0.426-0.508,0.863-1.051,1.313-1.629
	c0.445-0.578,0.871-1.182,1.275-1.806c0.408-0.625,0.746-1.253,1.02-1.888c0.139-0.346,0.314-0.756,0.536-1.229
	c0.221-0.473,0.485-0.968,0.795-1.479c0.31-0.511,0.664-1.03,1.063-1.553c0.399-0.522,0.86-1.003,1.39-1.445
	c0.382,0.022,0.79,0.089,1.228,0.204c0.437,0.114,0.85,0.248,1.237,0.404c0.39,0.155,0.728,0.323,1.011,0.501
	c0.284,0.18,0.494,0.361,0.633,0.547c-0.605,1.262-1.271,2.506-1.988,3.733c-0.723,1.225-1.396,2.434-2.027,3.619
	c-0.629,1.186-1.17,2.373-1.622,3.554c-0.452,1.185-0.715,2.349-0.78,3.496c-0.035,0.617-0.017,1.155,0.061,1.616
	c0.077,0.463,0.165,0.852,0.263,1.168c0.103,0.314,0.197,0.58,0.289,0.791c0.089,0.207,0.128,0.391,0.12,0.537
	c-0.001,0.029-0.031,0.07-0.095,0.127c-0.029,0.027-0.062,0.041-0.089,0.039c-0.207-0.012-0.471-0.072-0.789-0.178
	c-0.317-0.109-0.67-0.256-1.057-0.438c-0.387-0.187-0.772-0.392-1.16-0.62C101.55,37.336,101.187,37.092,100.849,36.836z"/>
<path fill="#FF2A70" d="M118.974,17.414c0.748,0.28,1.438,0.844,2.066,1.691c0.628,0.849,1.078,1.767,1.346,2.755
	c-0.371,0.775-0.928,1.701-1.668,2.777c-0.74,1.078-1.484,2.178-2.229,3.301c-0.745,1.12-1.419,2.188-2.021,3.197
	c-0.604,1.013-0.973,1.854-1.101,2.525c0.5-0.472,1.054-1.023,1.665-1.65c0.613-0.627,1.211-1.258,1.794-1.887
	c0.581-0.627,1.125-1.203,1.626-1.718c0.501-0.519,0.895-0.899,1.175-1.149c0.593-0.553,1.292-1.198,2.103-1.934
	c0.812-0.732,1.654-1.423,2.533-2.064c0.877-0.641,1.758-1.178,2.639-1.615c0.88-0.435,1.674-0.631,2.38-0.59
	c0.765,0.044,1.388,0.34,1.875,0.883c0.479,0.546,0.853,1.105,1.116,1.682c-0.004,0.061-0.117,0.135-0.346,0.223
	c-0.227,0.093-0.562,0.358-0.998,0.805c-0.441,0.508-0.947,1.207-1.517,2.104c-0.569,0.896-1.127,1.864-1.677,2.908
	c-0.547,1.045-1.014,2.117-1.402,3.215c-0.391,1.098-0.609,2.104-0.665,3.014c-0.041,0.738,0.025,1.211,0.206,1.429
	c0.18,0.218,0.443,0.337,0.799,0.356c0.322,0.02,0.663-0.033,1.026-0.162c0.362-0.127,0.644-0.182,0.849-0.172
	c0.114,0.066,0.203,0.199,0.266,0.394c0.063,0.196,0.092,0.366,0.082,0.513c-0.248,0.194-0.539,0.383-0.875,0.568
	c-0.336,0.188-0.685,0.357-1.047,0.516c-0.363,0.154-0.72,0.28-1.063,0.379c-0.348,0.1-0.65,0.141-0.914,0.125
	c-0.854-0.052-1.545-0.218-2.072-0.496c-0.531-0.285-0.937-0.64-1.222-1.068c-0.284-0.428-0.47-0.934-0.552-1.516
	c-0.088-0.58-0.108-1.192-0.07-1.84c0.021-0.353,0.073-0.748,0.159-1.186c0.081-0.438,0.231-0.952,0.442-1.545
	c0.213-0.592,0.502-1.299,0.875-2.117c0.373-0.816,0.842-1.801,1.414-2.948c-0.061-0.002-0.472,0.181-1.229,0.55
	c-0.757,0.366-1.589,0.953-2.491,1.758c-1.46,1.24-2.777,2.477-3.954,3.705c-1.179,1.229-2.388,2.604-3.627,4.123
	c-0.698,0.875-1.31,1.61-1.831,2.217c-0.521,0.603-0.967,0.996-1.333,1.183c-0.597-0.39-1.022-0.909-1.278-1.56
	c-0.258-0.646-0.438-1.313-0.547-1.998c0.031-0.559,0.153-1.26,0.365-2.104c0.211-0.842,0.487-1.776,0.829-2.805
	c0.339-1.026,0.748-2.103,1.228-3.224s1-2.244,1.569-3.36c1.269-2.521,2.407-4.489,3.421-5.905
	C118.103,18.277,118.73,17.517,118.974,17.414z"/>
<path fill="#FF2A70" d="M145.207,19.744c0.586,0.035,1.252,0.25,1.996,0.649c0.743,0.396,1.395,0.892,1.947,1.484
	c-0.077-1.185-0.196-2.306-0.355-3.362c-0.16-1.055-0.419-2.155-0.779-3.297c-0.361-1.142-0.854-2.395-1.486-3.76
	c-0.623-1.364-1.418-2.929-2.377-4.696c0.104-0.259,0.318-0.556,0.648-0.891c0.329-0.334,0.7-0.644,1.114-0.93
	c0.416-0.285,0.845-0.533,1.283-0.744c0.44-0.209,0.854-0.333,1.239-0.369c0.771,0.959,1.481,2.143,2.138,3.553
	c0.655,1.41,1.215,2.918,1.681,4.523c0.467,1.606,0.805,3.255,1.018,4.948c0.209,1.694,0.272,3.305,0.183,4.833
	s-0.351,3.092-0.783,4.688c-0.434,1.598-0.995,3.147-1.688,4.657c-0.691,1.509-1.477,2.931-2.352,4.265
	c-0.875,1.336-1.805,2.52-2.797,3.554c-0.986,1.032-2.005,1.866-3.044,2.497c-1.039,0.634-2.063,1.009-3.071,1.125
	c-2.017-0.354-3.529-1.098-4.539-2.233c-1.011-1.135-1.459-2.642-1.351-4.524c0.058-0.998,0.274-2.078,0.653-3.235
	c0.378-1.156,0.857-2.302,1.439-3.435c0.583-1.129,1.249-2.228,2.008-3.289c0.754-1.063,1.545-2.012,2.377-2.848
	c0.832-0.835,1.662-1.54,2.492-2.111C143.629,20.227,144.431,19.875,145.207,19.744z M139.468,40.69
	c1.047-0.294,2.123-1.012,3.223-2.157c1.101-1.146,2.109-2.509,3.027-4.092c0.916-1.583,1.688-3.293,2.313-5.132
	c0.623-1.838,0.986-3.619,1.088-5.355c0.029-0.5,0.048-0.807,0.055-0.926c0.008-0.115-0.001-0.234-0.023-0.354
	c-0.723,0.252-1.502,0.707-2.336,1.367c-0.834,0.658-1.678,1.43-2.524,2.309c-0.849,0.88-1.657,1.843-2.424,2.889
	c-0.771,1.049-1.466,2.096-2.089,3.151c-0.62,1.058-1.125,2.073-1.506,3.055c-0.383,0.979-0.596,1.853-0.64,2.615
	C137.545,39.53,138.158,40.405,139.468,40.69z"/>
<path fill="#FF2A70" d="M169.734,23.965c0.296,0.018,0.638,0.088,1.027,0.213c0.393,0.129,0.742,0.281,1.059,0.463
	c0.313,0.18,0.574,0.363,0.785,0.554c0.209,0.19,0.311,0.356,0.303,0.504c-0.659,1.201-1.276,2.412-1.852,3.632
	c-0.572,1.223-1.067,2.394-1.488,3.521c-0.42,1.124-0.754,2.182-1.004,3.171c-0.25,0.986-0.395,1.85-0.438,2.585
	c-0.049,0.823,0,1.511,0.143,2.063c0.146,0.556,0.418,0.963,0.814,1.22c-0.365,0.216-0.833,0.379-1.398,0.495
	c-0.567,0.113-1.072,0.158-1.515,0.133c-1.587-0.094-2.315-1.229-2.188-3.402c0.099-1.676,0.791-3.938,2.078-6.779
	c-0.668,1.313-1.418,2.539-2.25,3.678c-0.836,1.142-1.674,2.145-2.521,3.003c-0.848,0.86-1.689,1.553-2.531,2.075
	c-0.845,0.522-1.605,0.826-2.287,0.902c-1.089-0.063-1.943-0.607-2.562-1.638c-0.616-1.028-0.88-2.312-0.79-3.845
	c0.095-1.654,0.55-3.375,1.361-5.166c0.813-1.786,1.815-3.432,3.012-4.932c1.193-1.5,2.467-2.736,3.82-3.707
	c1.355-0.975,2.636-1.425,3.84-1.354c0.287,0.107,0.609,0.302,0.963,0.589c0.354,0.282,0.688,0.611,1.005,0.982
	c0.315,0.371,0.581,0.748,0.796,1.129c0.214,0.38,0.329,0.703,0.342,0.968c-1.187,0.108-2.433,0.61-3.738,1.504
	c-1.306,0.896-2.508,1.995-3.6,3.299c-1.094,1.306-2.011,2.716-2.748,4.229c-0.734,1.519-1.145,2.951-1.224,4.301
	c-0.033,0.555,0.151,0.92,0.557,1.091c0.861-0.128,1.89-0.798,3.08-2.012c1.192-1.212,2.66-3.109,4.403-5.693
	c0.324-0.51,0.689-1.079,1.096-1.704c0.404-0.623,0.818-1.279,1.244-1.963c0.423-0.684,0.84-1.374,1.249-2.072
	C168.987,25.301,169.373,24.625,169.734,23.965z"/>
<path fill="#FFFFFF" d="M41.868,0.764c0.896-0.145,2.062-0.24,3.276-0.24c2.063,0,3.404,0.383,4.428,1.151
	c1.119,0.832,1.822,2.157,1.822,4.06c0,2.063-0.752,3.485-1.774,4.364c-1.136,0.942-2.877,1.39-4.987,1.39
	c-1.263,0-2.174-0.08-2.765-0.158V0.764z M44.296,9.54c0.208,0.047,0.559,0.047,0.848,0.047c2.222,0.017,3.676-1.198,3.676-3.771
	c0-2.238-1.311-3.42-3.42-3.42c-0.527,0-0.896,0.049-1.104,0.096V9.54z"/>
<path fill="#FFFFFF" d="M55.101,0.604h2.43v6.809c0,3.069-1.471,4.141-3.82,4.141c-0.574,0-1.311-0.096-1.79-0.256l0.271-1.967
	c0.336,0.113,0.768,0.192,1.248,0.192c1.022,0,1.662-0.464,1.662-2.126V0.604L55.101,0.604z"/>
<path fill="#FFFFFF" d="M106.787,0.749c0.751-0.127,1.807-0.225,3.292-0.225c1.503,0,2.573,0.288,3.293,0.863
	c0.703,0.543,1.149,1.439,1.149,2.494s-0.334,1.965-0.99,2.557c-0.831,0.768-2.063,1.135-3.5,1.135c-0.32,0-0.608-0.016-0.832-0.063
	v3.868h-2.414V0.749H106.787z M109.201,5.64c0.208,0.048,0.447,0.063,0.814,0.063c1.295,0,2.094-0.655,2.094-1.742
	c0-0.991-0.688-1.582-1.918-1.582c-0.479,0-0.814,0.031-0.99,0.08V5.64z"/>
<path fill="#FFFFFF" d="M117.623,8.612l-0.768,2.766h-2.51l3.277-10.773h3.195l3.357,10.773h-2.638l-0.831-2.766H117.623
	L117.623,8.612z M120.355,6.79l-0.67-2.285c-0.192-0.639-0.383-1.438-0.543-2.078h-0.033c-0.159,0.641-0.318,1.455-0.494,2.078
	l-0.641,2.285H120.355z"/>
<path fill="#FFFFFF" d="M127.468,0.604V6.79c0,1.871,0.719,2.813,1.948,2.813c1.279,0,1.981-0.896,1.981-2.813V0.604h2.43v6.042
	c0,3.325-1.678,4.907-4.49,4.907c-2.718,0-4.3-1.52-4.3-4.939v-6.01H127.468z"/>
<path fill="#FFFFFF" d="M135.953,0.604h2.43v8.727h4.283v2.047h-6.713V0.604z"/>
<path fill="#FFFFFF" d="M61.332,0.749c0.75-0.127,1.805-0.225,3.292-0.225c1.503,0,2.573,0.288,3.293,0.863
	c0.703,0.543,1.149,1.439,1.149,2.494s-0.336,1.965-0.99,2.557c-0.831,0.768-2.063,1.135-3.501,1.135
	c-0.317,0-0.606-0.016-0.83-0.063v3.868h-2.413V0.749z M63.745,5.64c0.208,0.048,0.446,0.063,0.813,0.063
	c1.295,0,2.096-0.655,2.096-1.742c0-0.991-0.688-1.582-1.918-1.582c-0.479,0-0.815,0.031-0.991,0.08V5.64z"/>
<path fill="#FFFFFF" d="M70.617,0.749c0.781-0.127,1.934-0.225,3.242-0.225c1.6,0,2.719,0.24,3.486,0.848
	c0.654,0.512,1.006,1.277,1.006,2.27c0,1.357-0.976,2.301-1.901,2.637v0.049c0.752,0.303,1.167,1.006,1.438,1.998
	c0.336,1.229,0.654,2.637,0.862,3.053h-2.493c-0.16-0.32-0.432-1.184-0.734-2.51c-0.305-1.358-0.769-1.711-1.773-1.727h-0.721v4.236
	h-2.412V0.749z M73.029,5.384h0.96c1.214,0,1.934-0.606,1.934-1.552c0-0.975-0.671-1.485-1.79-1.485
	c-0.592,0-0.927,0.032-1.104,0.08V5.384z"/>
<path fill="#FFFFFF" d="M82.538,0.604v10.773h-2.429V0.604H82.538z"/>
<path fill="#FFFFFF" d="M84.646,11.377V0.604h2.846l2.238,3.948c0.639,1.135,1.263,2.478,1.758,3.692h0.031
	c-0.145-1.424-0.191-2.877-0.191-4.508V0.604h2.238v10.773h-2.559l-2.302-4.156c-0.64-1.15-1.358-2.542-1.869-3.805h-0.063
	c0.08,1.438,0.111,2.957,0.111,4.716v3.245H84.646z"/>
<path fill="#FFFFFF" d="M95.002,10.067l5.132-7.385V2.62h-4.668V0.604h7.816v1.407l-5.02,7.288v0.064h5.098v2.014h-8.358V10.067
	L95.002,10.067z"/>
</svg>
