<?xml version="1.0" encoding="utf-8"?>
<!-- Generator: Adobe Illustrator 15.0.0, SVG Export Plug-In . SVG Version: 6.00 Build 0)  -->
<!DOCTYPE svg PUBLIC "-//W3C//DTD SVG 1.1//EN" "http://www.w3.org/Graphics/SVG/1.1/DTD/svg11.dtd">
<svg version="1.1" id="Ebene_1" xmlns="http://www.w3.org/2000/svg" xmlns:xlink="http://www.w3.org/1999/xlink" x="0px" y="0px"
	 width="770px" height="94px" viewBox="0 0 770 94" enable-background="new 0 0 770 94" xml:space="preserve">
<rect x="0.5" y="0.5" display="none" fill="#020101" stroke="#000000" stroke-miterlimit="10" width="959" height="255"/>
<path display="none" fill="#FFFFFF" d="M197.767,123.896c-2.545-3.815-5.268-7.793-8.167-11.926
	c-2.898-4.135-5.816-8.125-8.75-11.98c-2.935-3.85-5.816-7.471-8.644-10.863c-2.829-3.393-5.409-6.254-7.743-8.586h-13.471V154
	h16.334v-48.125c6.221,7.279,12.091,15.018,17.606,23.215c5.516,8.198,10.642,16.502,15.379,24.91h13.896V80.541h-16.44V123.896
	L197.767,123.896z M314.225,140.75c-0.991,0.211-2.14,0.354-3.447,0.423c-1.31,0.071-2.883,0.106-4.721,0.106
	c-3.395,0-6.363-0.584-8.909-1.75s-4.667-2.809-6.363-4.928c-1.696-2.121-2.971-4.646-3.818-7.58
	c-0.848-2.933-1.272-6.201-1.272-9.807c0-7.42,1.715-13.268,5.145-17.543c3.429-4.275,8.998-6.412,16.706-6.412
	c3.463,0,6.663,0.441,9.599,1.324c2.934,0.885,5.532,1.926,7.796,3.127l4.772-13.25c-0.566-0.354-1.504-0.85-2.812-1.484
	c-1.309-0.636-2.97-1.252-4.985-1.854s-4.42-1.131-7.212-1.592c-2.794-0.457-5.923-0.688-9.387-0.688
	c-5.091,0-9.882,0.848-14.371,2.543c-4.49,1.695-8.396,4.188-11.72,7.473c-3.325,3.285-5.939,7.297-7.85,12.031
	c-1.909,4.734-2.863,10.176-2.863,16.323c0,6.079,0.865,11.485,2.599,16.218c1.731,4.736,4.189,8.73,7.372,11.979
	c3.183,3.252,7.018,5.726,11.507,7.42c4.49,1.696,9.493,2.545,15.009,2.545c6.435,0,11.844-0.442,16.229-1.323
	c4.384-0.884,7.564-1.715,9.546-2.492v-36.357h-16.545L314.225,140.75L314.225,140.75z M390.485,108.631h-27.789v-28.09H346.15V154
	h16.546v-31.165h27.789V154h16.545V80.541h-16.545V108.631z M417.637,94.639h22.167V154h16.546V94.639h22.167V80.541h-60.88V94.639
	L417.637,94.639z M565.065,138.1c-1.131,0.496-2.439,0.938-3.925,1.326c-1.485,0.389-3.183,0.725-5.092,1.006
	c-1.908,0.283-4.066,0.424-6.469,0.424c-3.818,0-7.071-0.617-9.759-1.854c-2.688-1.235-4.861-2.915-6.521-5.034
	c-1.664-2.119-2.865-4.646-3.607-7.58c-0.742-2.931-1.111-6.095-1.111-9.486c0-4.238,0.563-7.844,1.695-10.813
	c1.131-2.968,2.634-5.388,4.509-7.261c1.872-1.872,4.029-3.233,6.471-4.082c2.438-0.847,4.932-1.271,7.477-1.271
	c3.819,0,7.23,0.424,10.235,1.271c3.006,0.849,5.64,1.874,7.901,3.075l4.774-13.356c-0.566-0.354-1.486-0.849-2.759-1.483
	c-1.272-0.637-2.863-1.254-4.772-1.855s-4.137-1.13-6.682-1.591c-2.547-0.458-5.375-0.688-8.486-0.688
	c-5.374,0-10.359,0.848-14.955,2.543c-4.597,1.696-8.557,4.188-11.878,7.473c-3.326,3.287-5.939,7.314-7.85,12.084
	c-1.91,4.771-2.864,10.195-2.864,16.271c0,12.227,3.129,21.66,9.387,28.303c6.26,6.645,15.362,9.965,27.313,9.965
	c5.586,0,10.501-0.565,14.742-1.696c4.242-1.13,7.53-2.401,9.864-3.815l-4.562-13.25C567.222,137.146,566.196,137.607,565.065,138.1
	z M599.854,80.541h-16.545V154h49.107v-14.205h-32.563V80.541L599.854,80.541z M684.492,124.85c0,5.937-1.257,10.141-3.765,12.613
	c-2.512,2.475-5.781,3.71-9.812,3.71c-1.979,0-3.802-0.282-5.462-0.849c-1.663-0.564-3.076-1.5-4.242-2.809
	c-1.166-1.308-2.086-3.004-2.758-5.088c-0.674-2.084-1.008-4.611-1.008-7.58V80.541h-16.546v45.688
	c0,4.311,0.583,8.252,1.749,11.818c1.168,3.568,2.971,6.645,5.41,9.223c2.438,2.58,5.531,4.594,9.28,6.041
	c3.746,1.447,8.202,2.176,13.363,2.176c5.231,0,9.759-0.709,13.577-2.121c3.817-1.412,6.964-3.407,9.438-5.989
	c2.474-2.578,4.313-5.67,5.517-9.274c1.2-3.604,1.804-7.562,1.804-11.871V80.542h-16.547V124.85L684.492,124.85z M772.419,121.457
	c-1.696-3.037-4.88-5.439-9.546-7.209c5.656-3.393,8.485-8.02,8.485-13.887c0-3.885-0.796-7.153-2.387-9.805
	c-1.591-2.648-3.801-4.787-6.629-6.414c-2.829-1.623-6.205-2.771-10.129-3.445c-3.927-0.67-8.222-1.006-12.889-1.006
	c-3.464,0-7.212,0.158-11.242,0.477s-7.741,0.795-11.137,1.432v71.231c4.313,0.92,8.467,1.502,12.464,1.75
	c3.993,0.246,8.007,0.37,12.037,0.37c11.1,0,19.463-1.941,25.084-5.829c5.623-3.888,8.434-9.683,8.434-17.386
	C774.965,127.924,774.115,124.497,772.419,121.457z M733.069,93.367c1.272-0.141,2.721-0.229,4.348-0.266
	c1.627-0.033,3.146-0.052,4.563-0.052c4.383,0,7.706,0.603,9.97,1.804c2.265,1.203,3.396,3.285,3.396,6.252
	c0,2.899-1.099,5-3.289,6.308c-2.192,1.308-5.834,1.96-10.924,1.96h-8.062L733.069,93.367L733.069,93.367z M753.646,139.266
	c-3.041,1.414-7.037,2.119-11.984,2.119c-1.696,0-3.255-0.033-4.668-0.105c-1.415-0.069-2.722-0.176-3.924-0.317v-18.976h10.395
	c4.736,0,8.379,0.728,10.926,2.175c2.545,1.448,3.816,3.868,3.816,7.262C758.205,135.238,756.686,137.854,753.646,139.266z
	 M237.108,78.161c2.654,2.026,8.725,0.657,13.564-3.05c4.844-3.711,6.613-8.357,3.962-10.383c-1.229-0.94-3.195-1.141-5.43-0.729
	c-0.87-0.751-2.246-1.109-3.598-0.82l-4.546,0.975c-1.882,0.404-2.981,1.896-2.454,3.34l0.671,1.836
	C235.837,72.7,234.814,76.41,237.108,78.161z M247.691,72.787c3.403-1.174,5.253-3.725,4.332-5.84
	c0.076,0.104,0.153,0.205,0.22,0.313c1.279,2.174-0.588,4.938-4.172,6.172c-3.585,1.236-7.529,0.479-8.811-1.693
	c-0.063-0.108-0.114-0.219-0.162-0.332C240.561,73.335,244.288,73.964,247.691,72.787z M247.747,81.113h-2.255v1.402h2.255V81.113z
	 M247.836,103.482V83.917h-2.253v19.565l1.095,3.146L247.836,103.482z M231.17,144.309c-3.969,3.48,2.118,8.93,6.088,5.448
	c3.264-2.86,5.893-6.077,8.11-9.507c-1.585-2.797-3.408-6.027-3.968-9.1C239.033,135.755,235.311,140.68,231.17,144.309z
	 M247.238,119.176c3.824,6.654,2.968,5.821,4.857,8.268c2.385-4.991,3.971-11.481,4.32-17.133c0.162-0.451,0.108-0.814-0.116-1.119
	c0.152-0.209,0.254-0.494,0.254-0.938V93.416l19.572-28.387c-1.769-4.258-6.056-3.893-6.056-3.893
	c-3.972,5.451-11.342,15.297-16.12,20.121c-0.521-0.197-1.094-0.311-1.693-0.311h-0.718l-2.006,4.311v22.747
	c-1.753,0.052-3.646,0.204-5.45,0.396V85.516l-2.293-4.565h-2.294c-0.416,0-0.808,0.067-1.184,0.165
	c-5.064-4.553-12.951-12.393-16.84-17.725c0,0-7.229-1.797-6.055,3.274c1.639,1.985,12.387,16.81,19.772,25.286v16.303
	c0,0.35,0.069,0.594,0.166,0.793c0.024,0.568,0.236,1.906,0.853,4.73c0.851,6.943,9.916,25.759,9.949,25.707
	c2.166,4.369,4.601,8.627,7.408,12.73c2.89,4.23,10.332,0.364,7.429-3.888C257.015,142.5,248.674,123.93,247.238,119.176z
	 M235.902,109.549c0,0-0.002-0.003-0.002-0.006c0.002,0.003,0.004,0.005,0.006,0.006H235.902z"/>
<path fill="#FF2A70" d="M235.783,65.32l30.698-44.182v-0.382h-27.923V8.707h46.76v8.417l-30.025,43.604v0.385H285.8v12.046h-50.016
	L235.783,65.32L235.783,65.32z"/>
<path fill="#FF2A70" d="M310.757,56.615l-4.59,16.543h-15.016l19.605-64.451h19.123l20.082,64.451h-15.778l-4.973-16.543H310.757z
	 M327.109,45.716l-4.016-13.676c-1.151-3.826-2.298-8.606-3.251-12.431h-0.194c-0.954,3.824-1.911,8.703-2.965,12.431l-3.822,13.676
	H327.109z"/>
<path fill="#FF2A70" d="M412.977,48.488c-0.286-7.746-0.573-17.117-0.573-26.489h-0.188c-2.104,8.226-4.783,17.405-7.269,24.958
	l-7.841,25.15h-11.38l-6.887-24.864c-2.103-7.649-4.206-16.829-5.834-25.244h-0.19c-0.288,8.702-0.67,18.647-1.051,26.679
	l-1.245,24.479h-13.484l4.112-64.45h19.414l6.312,21.517c2.104,7.459,4.017,15.492,5.449,23.043h0.383
	c1.723-7.457,3.921-15.968,6.121-23.14l6.79-21.42h19.124l3.442,64.45h-14.151L412.977,48.488z"/>
<path fill="#FF2A70" d="M453.906,8.707v37.009c0,11.187,4.307,16.83,11.667,16.83c7.65,0,11.859-5.356,11.859-16.83V8.707h14.535
	v36.148c0,19.892-10.042,29.355-26.872,29.355c-16.256,0-25.726-9.084-25.726-29.55V8.707H453.906z"/>
<path fill="#FF2A70" d="M504.589,73.158V8.707h17.021l13.388,23.62c3.825,6.791,7.556,14.823,10.521,22.091h0.19
	c-0.86-8.512-1.147-17.213-1.147-26.967V8.707h13.388v64.451h-15.299L528.88,48.297c-3.824-6.885-8.128-15.203-11.189-22.759h-0.38
	c0.477,8.606,0.666,17.688,0.666,28.209v19.411H504.589L504.589,73.158z"/>
<path fill="#FF2A70" d="M570.569,9.664c5.356-0.859,12.338-1.434,19.604-1.434c12.337,0,20.368,2.295,26.487,6.883
	c6.694,4.974,10.903,12.912,10.903,24.293c0,12.334-4.497,20.847-10.617,26.102c-6.786,5.645-17.213,8.322-29.833,8.322
	c-7.558,0-13.007-0.479-16.546-0.957L570.569,9.664L570.569,9.664z M585.104,62.162c1.244,0.29,3.349,0.29,5.069,0.29
	c13.291,0.094,21.995-7.175,21.995-22.57c0-13.388-7.842-20.464-20.466-20.464c-3.154,0-5.354,0.287-6.6,0.574L585.104,62.162
	L585.104,62.162z"/>
<path fill="#FF2A70" d="M650.611,56.615l-4.59,16.543h-15.015L650.61,8.707h19.124l20.081,64.451h-15.778l-4.97-16.543H650.611z
	 M666.964,45.716l-4.02-13.676c-1.146-3.826-2.295-8.606-3.249-12.431h-0.192c-0.953,3.824-1.911,8.703-2.967,12.431l-3.82,13.676
	H666.964z"/>
<path fill="#FFFFFF" d="M64.824,9.936c5.354-0.859,12.335-1.434,19.603-1.434c12.336,0,20.368,2.294,26.488,6.885
	c6.693,4.973,10.902,12.91,10.902,24.291c0,12.332-4.495,20.844-10.615,26.104c-6.789,5.644-17.211,8.322-29.835,8.322
	c-7.555,0-13.007-0.48-16.543-0.957V9.936z M79.359,62.436c1.242,0.287,3.347,0.287,5.068,0.287
	c13.292,0.094,21.994-7.175,21.994-22.568c0-13.389-7.841-20.465-20.463-20.465c-3.157,0-5.356,0.287-6.6,0.574V62.436z"/>
<path fill="#FFFFFF" d="M144.002,8.979h14.535v40.736c0,18.361-8.797,24.768-22.854,24.768c-3.441,0-7.841-0.573-10.709-1.526
	l1.624-11.765c2.01,0.672,4.591,1.147,7.459,1.147c6.12,0,9.946-2.771,9.946-12.717L144.002,8.979L144.002,8.979z"/>
<rect x="311.5" y="-199.5" fill="none" width="118" height="37"/>
<text transform="matrix(1 0 0 1 311.5002 -173.9404)" font-family="'MyriadPro-Bold'" font-size="36">DJ PAU</text>
</svg>
