<?xml version="1.0" encoding="utf-8"?>
<!-- Generator: Adobe Illustrator 15.0.0, SVG Export Plug-In  -->
<!DOCTYPE svg PUBLIC "-//W3C//DTD SVG 1.1//EN" "http://www.w3.org/Graphics/SVG/1.1/DTD/svg11.dtd" [
	<!ENTITY ns_flows "http://ns.adobe.com/Flows/1.0/">
]>
<svg version="1.1"
	 xmlns="http://www.w3.org/2000/svg" xmlns:xlink="http://www.w3.org/1999/xlink" xmlns:a="http://ns.adobe.com/AdobeSVGViewerExtensions/3.0/"
	 x="0px" y="0px" width="183px" height="43px" viewBox="0 -1.409 183 43" enable-background="new 0 -1.409 183 43"
	 xml:space="preserve">
<defs>
</defs>
<path fill="#FF2A70" d="M50.058,16.716L59.046,3.78V3.668H50.87V0.14h13.691v2.464L55.77,15.372v0.112h8.933v3.528H50.058V16.716z"
	/>
<path fill="#FF2A70" d="M72.01,14.168l-1.344,4.844H66.27L72.01,0.14h5.6l5.88,18.872h-4.62l-1.456-4.844H72.01z M76.798,10.976
	l-1.176-4.004c-0.337-1.12-0.673-2.52-0.952-3.64h-0.057c-0.279,1.12-0.56,2.548-0.868,3.64l-1.119,4.004H76.798z"/>
<path fill="#FF2A70" d="M101.94,11.788c-0.084-2.268-0.168-5.012-0.168-7.756h-0.056c-0.616,2.408-1.4,5.096-2.128,7.308
	l-2.296,7.364h-3.332l-2.017-7.28c-0.615-2.24-1.231-4.928-1.708-7.392h-0.056c-0.084,2.548-0.196,5.46-0.308,7.812l-0.364,7.168
	h-3.948L86.765,0.14h5.685l1.848,6.3c0.616,2.184,1.176,4.536,1.596,6.748h0.112c0.504-2.184,1.147-4.676,1.792-6.776l1.988-6.272
	h5.6l1.008,18.872h-4.144L101.94,11.788z"/>
<path fill="#FF2A70" d="M113.925,0.14v10.836c0,3.276,1.261,4.928,3.416,4.928c2.24,0,3.473-1.568,3.473-4.928V0.14h4.256v10.584
	c0,5.824-2.94,8.596-7.868,8.596c-4.76,0-7.532-2.66-7.532-8.652V0.14H113.925z"/>
<path fill="#FF2A70" d="M128.765,19.012V0.14h4.984l3.92,6.916c1.12,1.988,2.212,4.34,3.08,6.468h0.056
	c-0.252-2.492-0.336-5.04-0.336-7.896V0.14h3.92v18.872h-4.479l-4.032-7.28c-1.12-2.016-2.38-4.452-3.276-6.664h-0.111
	c0.14,2.52,0.195,5.18,0.195,8.26v5.684H128.765z"/>
<path fill="#FF2A70" d="M148.084,0.42c1.568-0.252,3.612-0.42,5.74-0.42c3.612,0,5.964,0.672,7.756,2.016
	c1.96,1.456,3.192,3.78,3.192,7.112c0,3.612-1.316,6.104-3.108,7.644c-1.987,1.652-5.04,2.436-8.735,2.436
	c-2.213,0-3.809-0.14-4.845-0.28V0.42z M152.34,15.792c0.364,0.084,0.98,0.084,1.484,0.084c3.892,0.028,6.44-2.1,6.44-6.608
	c0-3.92-2.296-5.992-5.992-5.992c-0.924,0-1.568,0.084-1.933,0.168V15.792z"/>
<path fill="#FF2A70" d="M171.521,14.168l-1.344,4.844h-4.396l5.74-18.872h5.6L183,19.012h-4.62l-1.455-4.844H171.521z
	 M176.309,10.976l-1.177-4.004c-0.336-1.12-0.672-2.52-0.951-3.64h-0.057c-0.279,1.12-0.56,2.548-0.868,3.64l-1.119,4.004H176.309z"
	/>
<path fill="#FFFFFF" d="M1.825,27.127v4.794h5.651v-4.794h1.525v11.457H7.477v-5.371H1.825v5.371H0.3V27.127H1.825z"/>
<path fill="#FFFFFF" d="M20.271,34.981l-1.213,3.604h-1.561l3.987-11.457h1.803l3.986,11.457h-1.612l-1.248-3.604H20.271z
	 M24.12,33.825l-1.162-3.298c-0.26-0.747-0.433-1.428-0.607-2.091h-0.034c-0.174,0.663-0.347,1.377-0.59,2.074l-1.144,3.314H24.12z"
	/>
<path fill="#FFFFFF" d="M35.754,27.263c0.728-0.118,1.682-0.221,2.895-0.221c1.491,0,2.583,0.34,3.276,0.952
	c0.624,0.544,1.022,1.377,1.022,2.396c0,1.037-0.312,1.853-0.901,2.448c-0.814,0.833-2.097,1.258-3.57,1.258
	c-0.451,0-0.867-0.018-1.214-0.103v4.59h-1.508V27.263z M37.262,32.788c0.33,0.085,0.746,0.119,1.248,0.119
	c1.82,0,2.93-0.884,2.93-2.431c0-1.529-1.109-2.261-2.756-2.261c-0.659,0-1.162,0.051-1.422,0.119V32.788z"/>
<path fill="#FFFFFF" d="M51.739,27.263c0.728-0.118,1.681-0.221,2.895-0.221c1.49,0,2.583,0.34,3.276,0.952
	c0.624,0.544,1.023,1.377,1.023,2.396c0,1.037-0.313,1.853-0.901,2.448c-0.815,0.833-2.098,1.258-3.571,1.258
	c-0.45,0-0.866-0.018-1.213-0.103v4.59h-1.508V27.263z M53.247,32.788c0.329,0.085,0.745,0.119,1.248,0.119
	c1.82,0,2.929-0.884,2.929-2.431c0-1.529-1.109-2.261-2.756-2.261c-0.658,0-1.161,0.051-1.421,0.119V32.788z"/>
<path fill="#FFFFFF" d="M70.167,38.584v-4.861l-3.709-6.596h1.733l1.646,3.162c0.434,0.866,0.798,1.563,1.162,2.362h0.035
	c0.312-0.748,0.728-1.496,1.179-2.362l1.682-3.162h1.698l-3.9,6.578v4.879H70.167z"/>
<path fill="#FFFFFF" d="M94.145,27.263c0.728-0.118,1.682-0.221,2.895-0.221c1.491,0,2.583,0.34,3.276,0.952
	c0.624,0.544,1.022,1.377,1.022,2.396c0,1.037-0.312,1.853-0.901,2.448c-0.814,0.833-2.098,1.258-3.57,1.258
	c-0.451,0-0.867-0.018-1.214-0.103v4.59h-1.508V27.263z M95.652,32.788c0.329,0.085,0.745,0.119,1.248,0.119
	c1.82,0,2.93-0.884,2.93-2.431c0-1.529-1.109-2.261-2.756-2.261c-0.659,0-1.161,0.051-1.422,0.119V32.788z"/>
<path fill="#FFFFFF" d="M116.161,33.213h-4.524v4.13h5.062v1.241h-6.587V27.127h6.327v1.241h-4.802v3.62h4.524V33.213z"/>
<path fill="#FFFFFF" d="M135.404,32.737c0,3.927-2.444,6.034-5.426,6.034c-3.103,0-5.252-2.362-5.252-5.83
	c0-3.638,2.288-6.018,5.408-6.018C133.342,26.923,135.404,29.321,135.404,32.737z M126.321,32.907c0,2.465,1.352,4.658,3.744,4.658
	s3.744-2.159,3.744-4.76c0-2.295-1.213-4.675-3.727-4.675S126.321,30.409,126.321,32.907z"/>
<path fill="#FFFFFF" d="M144.127,27.263c0.728-0.118,1.682-0.221,2.895-0.221c1.491,0,2.583,0.34,3.276,0.952
	c0.624,0.544,1.022,1.377,1.022,2.396c0,1.037-0.312,1.853-0.901,2.448c-0.814,0.833-2.098,1.258-3.57,1.258
	c-0.451,0-0.867-0.018-1.214-0.103v4.59h-1.508V27.263z M145.635,32.788c0.329,0.085,0.745,0.119,1.248,0.119
	c1.82,0,2.93-0.884,2.93-2.431c0-1.529-1.109-2.261-2.756-2.261c-0.659,0-1.161,0.051-1.422,0.119V32.788z"/>
<path fill="#FFFFFF" d="M160.094,27.127h1.525v10.216h4.992v1.241h-6.518V27.127z"/>
<path fill="#FFFFFF" d="M181.088,33.213h-4.524v4.13h5.062v1.241h-6.587V27.127h6.327v1.241h-4.802v3.62h4.524V33.213z"/>
<path fill="#FFFFFF" d="M0,0.5c1.568-0.252,3.612-0.42,5.74-0.42c3.612,0,5.964,0.672,7.756,2.016
	c1.96,1.456,3.192,3.78,3.192,7.112c0,3.611-1.316,6.104-3.108,7.644c-1.988,1.652-5.04,2.437-8.736,2.437
	c-2.212,0-3.808-0.141-4.844-0.28V0.5z M4.256,15.872c0.364,0.084,0.98,0.084,1.484,0.084c3.892,0.027,6.44-2.101,6.44-6.608
	c0-3.92-2.296-5.992-5.992-5.992c-0.924,0-1.568,0.084-1.932,0.168V15.872z"/>
<path fill="#FFFFFF" d="M23.184,0.219h4.256v11.928c0,5.376-2.576,7.252-6.692,7.252c-1.008,0-2.296-0.168-3.136-0.447l0.476-3.444
	c0.588,0.196,1.344,0.336,2.184,0.336c1.792,0,2.912-0.812,2.912-3.724V0.219z"/>
</svg>
