<?xml version="1.0" encoding="utf-8"?>
<!-- Generator: Adobe Illustrator 15.0.0, SVG Export Plug-In . SVG Version: 6.00 Build 0)  -->
<!DOCTYPE svg PUBLIC "-//W3C//DTD SVG 1.1//EN" "http://www.w3.org/Graphics/SVG/1.1/DTD/svg11.dtd">
<svg version="1.1" id="Layer_1" xmlns="http://www.w3.org/2000/svg" xmlns:xlink="http://www.w3.org/1999/xlink" x="0px" y="0px"
	 width="770px" height="94px" viewBox="0 0 770 94" enable-background="new 0 0 770 94" xml:space="preserve">
<g>
	<path fill="#FF2A70" d="M398.785,26.354c-0.248-0.907-0.45-1.959-0.604-3.159c-0.156-1.2-0.232-2.966-0.232-5.302
		c0-1.49,0.03-2.997,0.093-4.521c0.061-1.523,0.34-2.836,0.836-3.939c3.036,0.613,6.275,1.173,9.715,1.684
		c3.439,0.51,6.956,0.969,10.551,1.377c3.594,0.408,7.188,0.611,10.784,0.611c3.593,0,7.064,0,10.411,0
		c4.586,0,8.273-0.077,11.063-0.232c0.99,1.47,1.611,3.208,1.859,5.213c0.247,2.006,0.372,3.877,0.372,5.614
		c-7.128,2.872-13.884,6.522-20.266,10.951c-6.384,4.43-12.178,9.058-17.384,13.885c-5.206,4.826-9.7,9.592-13.479,14.295
		c-3.781,4.705-6.601,8.798-8.46,12.28c1.116-0.221,2.262-0.423,3.44-0.607c1.176-0.183,2.447-0.349,3.811-0.497
		c1.363-0.146,2.882-0.293,4.556-0.441c1.673-0.146,3.594-0.221,5.764-0.221c3.035,0,5.701-0.239,7.994-0.719
		c2.292-0.479,4.244-0.992,5.856-1.535c1.611-0.544,2.896-1.055,3.858-1.534c0.96-0.479,1.657-0.88,2.092-1.2
		c0.247,0.553,0.541,1.38,0.883,2.484c0.34,1.104,0.65,2.313,0.93,3.633c0.279,1.318,0.512,2.667,0.697,4.047
		c0.186,1.378,0.278,2.65,0.278,3.815c0,0.613-0.016,1.026-0.046,1.243c-0.032,0.214-0.078,0.443-0.14,0.688
		c-2.789,0-5.594-0.148-8.413-0.441c-2.82-0.295-5.624-0.441-8.413-0.441c-3.718,0-7.576,0.2-11.573,0.604
		c-3.997,0.402-7.841,1.022-11.527,1.858c-3.688,0.837-7.065,1.906-10.133,3.207c-3.067,1.302-5.531,2.851-7.39,4.648
		c-0.497-1.613-1.008-2.995-1.534-4.141c-0.527-1.149-0.79-2.53-0.79-4.143c0-1.615,0.325-2.902,0.976-3.864
		c0.651-0.961,1.534-1.753,2.649-2.373c3.718-5.337,7.948-10.627,12.689-15.87c4.741-5.244,9.808-10.316,15.199-15.219
		c5.392-4.902,10.969-9.572,16.732-14.009c5.764-4.436,11.527-8.485,17.291-12.147c-3.719,0-7.654,0-11.806,0
		c-2.914,0-5.796,0-8.646,0c-2.852,0-5.548,0.174-8.088,0.522c-2.542,0.349-4.881,0.853-7.019,1.512
		C402.086,24.632,400.273,25.425,398.785,26.354z"/>
	<path fill="#FF2A70" d="M478.269,40.623c0.619,0,1.348,0.109,2.185,0.325c0.837,0.218,1.595,0.497,2.277,0.837
		c0.682,0.341,1.255,0.697,1.72,1.069s0.697,0.713,0.697,1.022c-1.24,2.603-2.387,5.222-3.439,7.855
		c-1.055,2.635-1.952,5.159-2.696,7.576c-0.743,2.417-1.317,4.68-1.72,6.786c-0.403,2.107-0.604,3.937-0.604,5.484
		c0,1.736,0.186,3.177,0.558,4.323c0.372,1.147,0.99,1.968,1.859,2.463c-0.744,0.496-1.706,0.898-2.882,1.209
		c-1.179,0.31-2.231,0.465-3.161,0.465c-3.347,0-5.02-2.292-5.02-6.879c0-3.533,1.177-8.367,3.532-14.502
		c-1.24,2.838-2.665,5.508-4.276,8.006c-1.612,2.5-3.253,4.706-4.927,6.619c-1.673,1.913-3.362,3.472-5.066,4.674
		c-1.705,1.201-3.27,1.928-4.694,2.175c-2.294,0-4.153-1.043-5.578-3.127c-1.426-2.085-2.138-4.746-2.138-7.981
		c0-3.485,0.743-7.157,2.231-11.015c1.487-3.858,3.393-7.438,5.717-10.736s4.849-6.053,7.576-8.262
		c2.727-2.209,5.359-3.315,7.901-3.315c0.619,0.186,1.316,0.558,2.092,1.114c0.774,0.556,1.519,1.206,2.231,1.946
		c0.712,0.742,1.315,1.499,1.813,2.272c0.495,0.772,0.774,1.438,0.837,1.994c-2.479,0.372-5.036,1.578-7.67,3.617
		c-2.635,2.041-5.02,4.498-7.157,7.373c-2.139,2.876-3.891,5.951-5.253,9.228c-1.363,3.277-2.045,6.338-2.045,9.182
		c0,1.175,0.433,1.917,1.302,2.226c1.797-0.372,3.872-1.906,6.229-4.602c2.354-2.696,5.205-6.863,8.552-12.504
		c0.619-1.115,1.316-2.354,2.092-3.718c0.774-1.362,1.564-2.789,2.371-4.276c0.805-1.487,1.595-2.989,2.37-4.509
		C476.859,43.52,477.586,42.049,478.269,40.623z"/>
	<path fill="#FF2A70" d="M543.619,49.687c-0.992,0-2.201,0.605-3.626,1.815c-1.426,1.211-2.96,2.763-4.602,4.655
		c-1.643,1.894-3.347,3.988-5.112,6.285c-1.767,2.296-3.472,4.576-5.113,6.843c-1.643,2.266-3.177,4.391-4.602,6.376
		c-1.427,1.987-2.635,3.569-3.625,4.749c-1.364-0.559-2.542-1.38-3.533-2.464c-0.992-1.084-1.705-2.432-2.138-4.044
		c0.31-1.917,0.743-3.913,1.302-5.985c0.558-2.071,1.285-4.222,2.185-6.449c0.897-2.227,2.013-4.563,3.346-7.007
		c1.332-2.443,2.959-5.027,4.881-7.75c-0.93,0-2.2,0.636-3.812,1.909c-1.612,1.272-3.347,2.918-5.206,4.934
		c-1.858,2.017-3.78,4.282-5.764,6.795c-1.983,2.514-3.843,4.981-5.577,7.401c-2.294,3.228-4.199,6.051-5.717,8.471
		c-1.52,2.42-2.619,3.847-3.301,4.282c-1.612-1.178-2.728-2.447-3.347-3.812c-0.62-1.362-1.085-2.882-1.394-4.555
		c0.061-1.488,0.293-3.347,0.696-5.578c0.402-2.231,0.977-4.523,1.721-6.879c1.425-4.523,3.268-9.018,5.53-13.479
		c2.262-4.462,4.446-8.553,6.554-12.271c1.734,0.372,3.301,0.961,4.695,1.766c1.395,0.806,2.865,1.984,4.415,3.533
		c-0.62,1.922-1.58,3.951-2.882,6.089c-1.301,2.138-2.665,4.385-4.09,6.74c-1.427,2.356-2.728,4.773-3.904,7.251
		c-1.178,2.479-1.952,4.989-2.324,7.53c1.734-2.479,3.796-5.33,6.182-8.553c2.386-3.222,4.834-6.259,7.345-9.11
		c2.51-2.85,5.004-5.267,7.482-7.251c2.479-1.982,4.71-2.975,6.693-2.975c0.744,0,1.549,0.125,2.417,0.372
		c0.867,0.249,1.674,0.558,2.417,0.93c0.744,0.372,1.362,0.729,1.859,1.069c0.495,0.341,0.774,0.604,0.837,0.79
		c-0.311,1.24-1.039,2.928-2.185,5.066c-1.147,2.138-2.371,4.385-3.672,6.74c-1.302,2.355-2.51,4.634-3.626,6.832
		c-1.115,2.201-1.766,3.951-1.952,5.253c3.036-4.151,5.888-7.916,8.553-11.295c2.664-3.377,5.174-6.274,7.529-8.692
		c2.355-2.417,4.54-4.276,6.555-5.578c2.013-1.301,3.918-1.952,5.717-1.952c1.239,0,2.4,0.325,3.486,0.976
		c1.083,0.651,1.843,1.596,2.277,2.835c-0.558,1.859-1.473,4.09-2.742,6.693c-1.271,2.603-2.557,5.345-3.858,8.227
		s-2.463,5.717-3.486,8.506c-1.022,2.789-1.533,5.299-1.533,7.53c0,1.302,0.186,2.154,0.558,2.557
		c0.372,0.403,0.897,0.604,1.58,0.604c0.744,0,1.441-0.139,2.092-0.418s1.13-0.418,1.44-0.418c0.372,0.248,0.589,0.558,0.651,0.93
		c0.061,0.371,0.093,0.713,0.093,1.022c-1.24,0.99-2.51,1.813-3.812,2.463c-1.302,0.651-2.758,0.977-4.369,0.977
		c-1.487,0-2.712-0.249-3.672-0.742c-0.962-0.495-1.752-1.177-2.37-2.043c-0.621-0.865-1.055-1.855-1.302-2.97
		c-0.248-1.113-0.372-2.32-0.372-3.62c0-2.103,0.279-4.191,0.837-6.266c0.558-2.073,1.223-4.053,1.998-5.941
		c0.774-1.887,1.596-3.649,2.464-5.29C542.255,52.456,542.999,50.986,543.619,49.687z"/>
	<path fill="#FF2A70" d="M586.288,76.134c-1.178-0.991-1.968-2.231-2.37-3.719c-0.404-1.487-0.604-2.757-0.604-3.812
		c0-1.301,0.153-2.417,0.465-3.347c-0.249,0-0.807,0.495-1.674,1.483c-0.868,0.989-1.813,2.163-2.835,3.522s-2.03,2.687-3.021,3.984
		c-0.992,1.297-1.735,2.254-2.23,2.871c-0.807,0.866-1.566,1.544-2.278,2.039c-0.713,0.493-1.286,0.771-1.72,0.834
		c-0.992,0-2.03-0.173-3.114-0.514c-1.085-0.345-2.107-0.828-3.067-1.451c-0.962-0.623-1.798-1.371-2.51-2.246
		c-0.713-0.873-1.194-1.87-1.441-2.993c0-1.734,0.047-3.161,0.14-4.276s0.294-2.324,0.604-3.625
		c0.558-2.355,1.378-5.021,2.463-7.995c1.084-2.975,2.339-5.903,3.766-8.785c1.425-2.881,3.021-5.577,4.787-8.087
		c1.767-2.51,3.641-4.477,5.624-5.903c0.558,0,1.209,0.046,1.952,0.139c0.744,0.093,1.502,0.265,2.278,0.512
		c0.773,0.248,1.518,0.543,2.23,0.883c0.712,0.341,1.316,0.79,1.813,1.348c-0.558,0.62-1.968,2.696-4.229,6.229
		c-2.263,3.532-4.787,8.614-7.576,15.245c-0.311,0.683-0.683,1.674-1.115,2.975c-0.435,1.302-0.869,2.666-1.302,4.091
		c-0.435,1.426-0.79,2.82-1.069,4.184c-0.278,1.363-0.418,2.448-0.418,3.253c0,0.497,0.077,0.869,0.232,1.116
		c0.154,0.248,0.293,0.434,0.418,0.558c0.93-0.372,2.106-1.395,3.533-3.068c1.425-1.673,3.407-4.244,5.949-7.716
		c0.618-0.867,1.348-1.858,2.185-2.975c0.837-1.115,1.688-2.308,2.557-3.579c0.867-1.27,1.688-2.587,2.463-3.95
		c0.774-1.362,1.409-2.727,1.906-4.091c0.247-0.743,0.572-1.627,0.976-2.649c0.402-1.023,0.897-2.092,1.487-3.208
		c0.589-1.115,1.27-2.246,2.045-3.393c0.774-1.146,1.688-2.215,2.743-3.207c0.805,0,1.673,0.093,2.603,0.279
		s1.813,0.418,2.649,0.697s1.564,0.59,2.185,0.93c0.619,0.341,1.084,0.697,1.395,1.069c-1.115,2.728-2.356,5.424-3.719,8.087
		c-1.363,2.666-2.635,5.284-3.812,7.855c-1.178,2.572-2.17,5.129-2.975,7.669c-0.806,2.542-1.208,5.021-1.208,7.438
		c0,1.302,0.107,2.433,0.325,3.393c0.216,0.962,0.448,1.767,0.697,2.417c0.247,0.651,0.479,1.194,0.697,1.627
		c0.216,0.433,0.325,0.805,0.325,1.115c0,0.062-0.063,0.154-0.186,0.279c-0.063,0.062-0.125,0.093-0.187,0.093
		c-0.435,0-0.992-0.093-1.673-0.278c-0.683-0.187-1.441-0.45-2.278-0.79c-0.836-0.342-1.673-0.729-2.51-1.162
		C587.823,77.095,587.031,76.63,586.288,76.134z"/>
	<path fill="#FF2A70" d="M621.984,33.093c1.61,0.497,3.129,1.596,4.555,3.3c1.425,1.706,2.479,3.579,3.161,5.625
		c-0.683,1.673-1.736,3.688-3.161,6.042c-1.426,2.355-2.852,4.757-4.276,7.204c-1.426,2.449-2.712,4.773-3.857,6.973
		c-1.147,2.2-1.813,4.013-1.999,5.438c0.991-1.053,2.092-2.277,3.301-3.672c1.208-1.395,2.385-2.789,3.532-4.183
		c1.146-1.395,2.215-2.664,3.207-3.812c0.99-1.146,1.767-1.999,2.324-2.557c1.177-1.239,2.57-2.68,4.183-4.323
		c1.611-1.641,3.301-3.191,5.066-4.647c1.767-1.456,3.548-2.696,5.346-3.719c1.797-1.022,3.439-1.534,4.927-1.534
		c1.611,0,2.959,0.543,4.044,1.627c1.084,1.085,1.937,2.216,2.557,3.393c0,0.125-0.232,0.295-0.697,0.511
		c-0.465,0.218-1.132,0.822-1.999,1.813c-0.868,1.116-1.845,2.65-2.928,4.602c-1.085,1.952-2.139,4.06-3.161,6.321
		c-1.022,2.263-1.875,4.571-2.557,6.926c-0.683,2.355-1.022,4.494-1.022,6.414c0,1.55,0.2,2.542,0.604,2.975
		c0.402,0.435,0.976,0.65,1.72,0.65c0.682,0,1.395-0.153,2.138-0.465c0.744-0.309,1.332-0.465,1.767-0.465
		c0.247,0.125,0.449,0.389,0.604,0.791c0.154,0.403,0.232,0.759,0.232,1.068c-0.497,0.435-1.085,0.869-1.767,1.302
		c-0.683,0.435-1.395,0.837-2.138,1.208c-0.744,0.372-1.473,0.682-2.185,0.93c-0.714,0.247-1.349,0.372-1.906,0.372
		c-1.798,0-3.27-0.265-4.415-0.79c-1.147-0.525-2.046-1.223-2.696-2.092c-0.65-0.867-1.101-1.905-1.348-3.114
		c-0.249-1.208-0.372-2.494-0.372-3.857c0-0.744,0.062-1.581,0.186-2.51c0.124-0.93,0.372-2.029,0.744-3.301
		c0.372-1.27,0.897-2.789,1.58-4.555c0.682-1.767,1.549-3.889,2.604-6.368c-0.125,0-0.962,0.435-2.511,1.302
		c-1.55,0.868-3.223,2.2-5.02,3.997c-2.914,2.789-5.531,5.547-7.855,8.273c-2.323,2.729-4.694,5.764-7.111,9.11
		c-1.364,1.922-2.557,3.547-3.579,4.881c-1.022,1.332-1.905,2.215-2.649,2.649c-1.301-0.744-2.263-1.782-2.882-3.114
		c-0.62-1.334-1.085-2.711-1.395-4.137c0-1.177,0.17-2.664,0.512-4.463c0.34-1.796,0.805-3.795,1.395-5.995
		c0.588-2.199,1.315-4.509,2.185-6.926c0.867-2.417,1.827-4.834,2.882-7.251c2.354-5.453,4.509-9.729,6.461-12.829
		C620.264,35.014,621.487,33.341,621.984,33.093z"/>
	<path fill="#FF2A70" d="M677.389,34.766c1.238,0,2.663,0.372,4.275,1.115c1.611,0.744,3.036,1.706,4.276,2.882
		c-0.311-2.478-0.697-4.818-1.162-7.019c-0.465-2.199-1.147-4.477-2.045-6.833c-0.899-2.354-2.092-4.927-3.579-7.716
		c-1.487-2.789-3.347-5.98-5.577-9.575c0.186-0.558,0.604-1.208,1.255-1.952c0.65-0.744,1.395-1.441,2.23-2.091
		c0.837-0.651,1.704-1.223,2.604-1.72c0.897-0.496,1.75-0.805,2.557-0.93c1.733,1.921,3.377,4.323,4.927,7.204
		c1.548,2.882,2.912,5.981,4.09,9.296c1.177,3.316,2.092,6.74,2.742,10.272c0.651,3.533,0.977,6.911,0.977,10.133
		c0,3.223-0.357,6.54-1.069,9.947c-0.713,3.409-1.705,6.74-2.975,9.993c-1.271,3.254-2.742,6.338-4.416,9.25
		c-1.673,2.914-3.485,5.517-5.438,7.809c-1.952,2.294-3.983,4.167-6.089,5.624c-2.108,1.456-4.216,2.371-6.322,2.742
		c-4.275-0.496-7.545-1.875-9.807-4.137c-2.264-2.262-3.394-5.375-3.394-9.342c0-2.106,0.325-4.4,0.977-6.88
		c0.65-2.478,1.518-4.941,2.603-7.39c1.084-2.448,2.354-4.834,3.812-7.158c1.455-2.324,3.005-4.416,4.648-6.275
		c1.641-1.859,3.3-3.44,4.973-4.741C674.135,35.975,675.777,35.138,677.389,34.766z M667.906,79.48
		c2.169-0.744,4.337-2.386,6.507-4.927c2.169-2.541,4.121-5.531,5.856-8.972c1.734-3.439,3.146-7.126,4.23-11.062
		c1.083-3.936,1.627-7.73,1.627-11.388c0-1.053,0-1.704,0-1.952c0-0.247-0.032-0.495-0.094-0.744
		c-1.487,0.62-3.067,1.673-4.74,3.161c-1.674,1.487-3.347,3.207-5.021,5.16c-1.673,1.952-3.254,4.075-4.741,6.367
		c-1.487,2.294-2.82,4.587-3.997,6.88c-1.178,2.293-2.107,4.494-2.789,6.6c-0.683,2.107-1.022,3.967-1.022,5.578
		C663.723,77.281,665.117,79.046,667.906,79.48z"/>
	<path fill="#FF2A70" d="M729.447,40.623c0.619,0,1.348,0.109,2.185,0.325c0.837,0.218,1.595,0.497,2.277,0.837
		c0.682,0.341,1.255,0.697,1.72,1.069s0.697,0.713,0.697,1.022c-1.24,2.603-2.387,5.222-3.439,7.855
		c-1.055,2.635-1.952,5.159-2.696,7.576c-0.743,2.417-1.317,4.68-1.72,6.786c-0.403,2.107-0.604,3.937-0.604,5.484
		c0,1.736,0.186,3.177,0.558,4.323c0.372,1.147,0.99,1.968,1.859,2.463c-0.744,0.496-1.706,0.898-2.882,1.209
		c-1.179,0.31-2.231,0.465-3.161,0.465c-3.347,0-5.02-2.292-5.02-6.879c0-3.533,1.177-8.367,3.532-14.502
		c-1.24,2.838-2.665,5.508-4.276,8.006c-1.612,2.5-3.253,4.706-4.927,6.619c-1.673,1.913-3.362,3.472-5.066,4.674
		c-1.705,1.201-3.27,1.928-4.694,2.175c-2.294,0-4.153-1.043-5.578-3.127c-1.426-2.085-2.138-4.746-2.138-7.981
		c0-3.485,0.743-7.157,2.231-11.015c1.487-3.858,3.393-7.438,5.717-10.736s4.849-6.053,7.576-8.262
		c2.727-2.209,5.359-3.315,7.901-3.315c0.619,0.186,1.316,0.558,2.092,1.114c0.774,0.556,1.519,1.206,2.231,1.946
		c0.712,0.742,1.315,1.499,1.813,2.272c0.495,0.772,0.774,1.438,0.837,1.994c-2.479,0.372-5.036,1.578-7.67,3.617
		c-2.635,2.041-5.02,4.498-7.157,7.373c-2.139,2.876-3.891,5.951-5.253,9.228c-1.363,3.277-2.045,6.338-2.045,9.182
		c0,1.175,0.433,1.917,1.302,2.226c1.797-0.372,3.872-1.906,6.229-4.602c2.354-2.696,5.205-6.863,8.552-12.504
		c0.619-1.115,1.316-2.354,2.092-3.718c0.774-1.362,1.564-2.789,2.371-4.276c0.805-1.487,1.595-2.989,2.37-4.509
		C728.036,43.52,728.764,42.049,729.447,40.623z"/>
</g>
<g>
	<path fill="#FFFFFF" d="M159.158,46.281c2.738-0.44,6.307-0.733,10.022-0.733c6.307,0,10.413,1.173,13.542,3.52
		c3.422,2.543,5.574,6.601,5.574,12.418c0,6.307-2.298,10.658-5.427,13.347c-3.471,2.885-8.8,4.253-15.253,4.253
		c-3.862,0-6.649-0.244-8.458-0.488V46.281z M166.589,73.121c0.636,0.146,1.711,0.146,2.591,0.146
		c6.795,0.049,11.245-3.667,11.245-11.538c0-6.845-4.009-10.462-10.462-10.462c-1.613,0-2.738,0.146-3.374,0.293V73.121z"/>
	<path fill="#FFFFFF" d="M199.634,45.792h7.431v20.827c0,9.387-4.498,12.662-11.685,12.662c-1.76,0-4.009-0.294-5.476-0.782
		l0.831-6.014c1.027,0.342,2.347,0.587,3.813,0.587c3.129,0,5.084-1.418,5.084-6.503V45.792z"/>
</g>
<g>
	<path fill="#FFFFFF" d="M300.749,393.344c2.298-0.391,5.524-0.684,10.071-0.684c4.596,0,7.871,0.879,10.071,2.64
		c2.151,1.662,3.52,4.4,3.52,7.627s-1.027,6.013-3.031,7.822c-2.542,2.347-6.307,3.471-10.707,3.471
		c-0.978,0-1.858-0.049-2.542-0.195v11.831h-7.382V393.344z M308.132,408.305c0.636,0.146,1.369,0.195,2.494,0.195
		c3.96,0,6.404-2.005,6.404-5.329c0-3.031-2.103-4.84-5.867-4.84c-1.467,0-2.494,0.098-3.031,0.244V408.305z"/>
	<path fill="#FFFFFF" d="M333.892,417.397l-2.347,8.458h-7.676l10.022-32.951h9.778l10.267,32.951h-8.066l-2.542-8.458H333.892z
		 M342.252,411.824l-2.053-6.991c-0.586-1.955-1.173-4.399-1.662-6.355h-0.098c-0.489,1.956-0.978,4.449-1.515,6.355l-1.956,6.991
		H342.252z"/>
	<path fill="#FFFFFF" d="M364.004,392.904v18.92c0,5.72,2.2,8.604,5.964,8.604c3.911,0,6.063-2.737,6.063-8.604v-18.92h7.431v18.479
		c0,10.17-5.133,15.01-13.738,15.01c-8.311,0-13.151-4.645-13.151-15.107v-18.382H364.004z"/>
	<path fill="#FFFFFF" d="M389.959,392.904h7.431v26.693h13.103v6.258h-20.533V392.904z"/>
</g>
<g>
	<path fill="#FFFFFF" d="M228.157,46.232c2.298-0.391,5.524-0.685,10.071-0.685c4.596,0,7.871,0.88,10.071,2.64
		c2.151,1.662,3.52,4.4,3.52,7.627s-1.027,6.013-3.031,7.822c-2.542,2.347-6.307,3.471-10.707,3.471
		c-0.978,0-1.858-0.049-2.542-0.195v11.831h-7.382V46.232z M235.539,61.192c0.636,0.146,1.369,0.195,2.494,0.195
		c3.96,0,6.404-2.005,6.404-5.329c0-3.031-2.103-4.84-5.867-4.84c-1.467,0-2.494,0.098-3.031,0.244V61.192z"/>
	<path fill="#FFFFFF" d="M256.557,46.232c2.396-0.391,5.916-0.685,9.925-0.685c4.889,0,8.311,0.733,10.658,2.591
		c2.004,1.564,3.08,3.911,3.08,6.942c0,4.155-2.982,7.04-5.818,8.066v0.146c2.298,0.929,3.569,3.08,4.4,6.111
		c1.027,3.765,2.004,8.066,2.64,9.338h-7.627c-0.489-0.978-1.32-3.618-2.249-7.676c-0.929-4.155-2.347-5.231-5.427-5.28h-2.2v12.956
		h-7.382V46.232z M263.94,60.41h2.934c3.715,0,5.916-1.858,5.916-4.742c0-2.982-2.054-4.547-5.476-4.547
		c-1.809,0-2.836,0.098-3.374,0.244V60.41z"/>
	<path fill="#FFFFFF" d="M293.024,45.792v32.951h-7.431V45.792H293.024z"/>
	<path fill="#FFFFFF" d="M299.474,78.743V45.792h8.702l6.845,12.075c1.956,3.472,3.862,7.578,5.378,11.294h0.098
		c-0.44-4.352-0.587-8.8-0.587-13.787v-9.582h6.845v32.951h-7.822l-7.04-12.711c-1.956-3.521-4.156-7.773-5.72-11.636h-0.195
		c0.245,4.4,0.342,9.044,0.342,14.422v9.925H299.474z"/>
	<path fill="#FFFFFF" d="M331.15,74.734l15.694-22.587v-0.195h-14.276v-6.16h23.907v4.303l-15.352,22.293v0.195h15.596v6.16H331.15
		V74.734z"/>
</g>
</svg>
