<?xml version="1.0" encoding="utf-8"?>
<!-- Generator: Adobe Illustrator 15.0.0, SVG Export Plug-In  -->
<!DOCTYPE svg PUBLIC "-//W3C//DTD SVG 1.1//EN" "http://www.w3.org/Graphics/SVG/1.1/DTD/svg11.dtd" [
	<!ENTITY ns_flows "http://ns.adobe.com/Flows/1.0/">
]>
<svg version="1.1"
	 xmlns="http://www.w3.org/2000/svg" xmlns:xlink="http://www.w3.org/1999/xlink" xmlns:a="http://ns.adobe.com/AdobeSVGViewerExtensions/3.0/"
	 x="0px" y="0px" width="770px" height="94px" viewBox="78 60 770 94" enable-background="new 78 60 770 94" xml:space="preserve">
<defs>
</defs>
<rect x="0.5" y="0.5" display="none" fill="#020101" stroke="#000000" stroke-miterlimit="10" width="959" height="255"/>
<path display="none" fill="#FFFFFF" d="M197.767,123.896c-2.545-3.815-5.268-7.792-8.167-11.926s-5.817-8.125-8.75-11.979
	c-2.935-3.85-5.817-7.472-8.644-10.864c-2.829-3.393-5.409-6.254-7.743-8.586h-13.471V154h16.334v-48.125
	c6.221,7.28,12.091,15.018,17.607,23.215c5.515,8.198,10.641,16.502,15.379,24.91h13.895V80.541h-16.44V123.896z M314.225,140.75
	c-0.991,0.211-2.14,0.354-3.447,0.423c-1.31,0.071-2.883,0.106-4.721,0.106c-3.394,0-6.363-0.584-8.909-1.749
	c-2.546-1.166-4.667-2.81-6.364-4.929c-1.696-2.12-2.97-4.646-3.818-7.58c-0.848-2.932-1.272-6.201-1.272-9.806
	c0-7.42,1.714-13.267,5.144-17.543c3.429-4.275,8.998-6.413,16.706-6.413c3.463,0,6.664,0.442,9.599,1.325
	c2.934,0.884,5.532,1.926,7.796,3.127l4.772-13.25c-0.566-0.354-1.503-0.849-2.811-1.484c-1.309-0.636-2.97-1.253-4.985-1.854
	c-2.016-0.601-4.42-1.131-7.212-1.591c-2.794-0.458-5.923-0.689-9.387-0.689c-5.091,0-9.882,0.848-14.371,2.543
	c-4.491,1.696-8.397,4.188-11.72,7.473c-3.325,3.286-5.94,7.297-7.85,12.031c-1.909,4.735-2.863,10.177-2.863,16.324
	c0,6.079,0.865,11.485,2.599,16.218c1.731,4.736,4.189,8.73,7.372,11.979c3.182,3.252,7.017,5.725,11.507,7.42
	c4.49,1.697,9.493,2.545,15.009,2.545c6.434,0,11.843-0.443,16.228-1.324c4.384-0.883,7.565-1.714,9.546-2.492v-36.357h-16.545
	L314.225,140.75L314.225,140.75z M390.485,108.631h-27.789v-28.09H346.15V154h16.546v-31.165h27.789V154h16.545V80.541h-16.545
	V108.631z M417.637,94.639h22.167V154h16.546V94.639h22.167V80.541h-60.88V94.639z M565.065,138.1
	c-1.131,0.495-2.44,0.938-3.925,1.326s-3.182,0.725-5.092,1.006c-1.908,0.283-4.066,0.424-6.468,0.424
	c-3.819,0-7.072-0.618-9.759-1.855c-2.688-1.235-4.862-2.915-6.522-5.034c-1.664-2.12-2.865-4.646-3.607-7.58
	c-0.742-2.931-1.112-6.095-1.112-9.487c0-4.238,0.564-7.844,1.696-10.812c1.131-2.968,2.634-5.388,4.509-7.261
	c1.872-1.872,4.029-3.233,6.47-4.082c2.438-0.847,4.932-1.271,7.477-1.271c3.819,0,7.23,0.424,10.235,1.271
	c3.006,0.849,5.64,1.874,7.902,3.075l4.774-13.356c-0.566-0.354-1.486-0.849-2.759-1.484c-1.272-0.636-2.863-1.254-4.772-1.855
	c-1.909-0.601-4.137-1.13-6.682-1.591c-2.547-0.458-5.375-0.688-8.486-0.688c-5.374,0-10.359,0.848-14.955,2.543
	c-4.597,1.696-8.557,4.187-11.878,7.473c-3.326,3.286-5.94,7.314-7.85,12.084c-1.91,4.771-2.864,10.195-2.864,16.271
	c0,12.227,3.129,21.66,9.387,28.303c6.259,6.644,15.362,9.965,27.312,9.965c5.586,0,10.501-0.566,14.742-1.697
	c4.243-1.13,7.531-2.401,9.865-3.815l-4.562-13.251C567.222,137.146,566.196,137.607,565.065,138.1z M599.854,80.541h-16.545V154
	h49.108v-14.205h-32.563V80.541L599.854,80.541z M684.493,124.849c0,5.937-1.257,10.142-3.765,12.614
	c-2.512,2.475-5.781,3.71-9.811,3.71c-1.979,0-3.802-0.282-5.462-0.849c-1.663-0.564-3.077-1.5-4.243-2.809
	c-1.166-1.307-2.086-3.003-2.757-5.088c-0.674-2.084-1.008-4.611-1.008-7.58V80.541h-16.546v45.688c0,4.31,0.583,8.251,1.749,11.818
	c1.168,3.569,2.971,6.645,5.41,9.223c2.438,2.58,5.531,4.594,9.28,6.041c3.746,1.447,8.202,2.175,13.364,2.175
	c5.231,0,9.758-0.708,13.577-2.12c3.817-1.413,6.964-3.408,9.438-5.99c2.474-2.578,4.313-5.67,5.517-9.275
	c1.2-3.604,1.803-7.561,1.803-11.871V80.542h-16.546v44.307H684.493z M772.419,121.457c-1.696-3.037-4.879-5.44-9.545-7.209
	c5.656-3.392,8.485-8.019,8.485-13.886c0-3.885-0.796-7.154-2.387-9.805c-1.591-2.649-3.801-4.787-6.629-6.414
	c-2.829-1.624-6.205-2.772-10.129-3.445c-3.926-0.67-8.221-1.007-12.888-1.007c-3.464,0-7.212,0.159-11.242,0.477
	c-4.031,0.318-7.742,0.795-11.137,1.431v71.232c4.313,0.92,8.467,1.502,12.464,1.75c3.993,0.246,8.007,0.37,12.037,0.37
	c11.1,0,19.463-1.941,25.084-5.829c5.623-3.887,8.433-9.682,8.433-17.385C774.965,127.924,774.116,124.497,772.419,121.457z
	 M733.069,93.367c1.272-0.14,2.721-0.229,4.348-0.265c1.626-0.034,3.146-0.052,4.562-0.052c4.383,0,7.706,0.602,9.97,1.803
	c2.264,1.203,3.395,3.286,3.395,6.253c0,2.899-1.098,5-3.289,6.307c-2.192,1.308-5.834,1.96-10.924,1.96h-8.061V93.367z
	 M753.646,139.265c-3.041,1.415-7.037,2.12-11.984,2.12c-1.697,0-3.255-0.034-4.668-0.105c-1.415-0.07-2.722-0.176-3.924-0.318
	v-18.975h10.394c4.737,0,8.379,0.727,10.926,2.174c2.545,1.449,3.817,3.869,3.817,7.262
	C758.206,135.238,756.686,137.854,753.646,139.265z M237.108,78.161c2.654,2.026,8.724,0.658,13.564-3.05
	c4.844-3.71,6.613-8.357,3.962-10.382c-1.228-0.941-3.195-1.141-5.43-0.729c-0.87-0.751-2.246-1.11-3.597-0.821l-4.546,0.975
	c-1.882,0.405-2.982,1.897-2.454,3.34l0.671,1.836C235.837,72.7,234.814,76.41,237.108,78.161z M247.691,72.787
	c3.403-1.174,5.253-3.724,4.332-5.84c0.076,0.104,0.153,0.205,0.219,0.313c1.28,2.173-0.587,4.938-4.171,6.171
	c-3.585,1.237-7.53,0.479-8.811-1.693c-0.063-0.108-0.114-0.219-0.162-0.331C240.561,73.335,244.288,73.964,247.691,72.787z
	 M247.747,81.113h-2.255v1.402h2.255V81.113z M247.836,103.482V83.917h-2.253v19.565l1.095,3.146L247.836,103.482z M231.17,144.308
	c-3.969,3.481,2.118,8.93,6.088,5.449c3.264-2.861,5.893-6.078,8.11-9.507c-1.585-2.797-3.408-6.027-3.967-9.1
	C239.033,135.755,235.311,140.68,231.17,144.308z M247.238,119.176c3.824,6.654,2.967,5.821,4.857,8.267
	c2.385-4.991,3.971-11.481,4.32-17.133c0.162-0.45,0.109-0.814-0.116-1.118c0.152-0.21,0.254-0.494,0.254-0.938V93.416
	l19.572-28.387c-1.768-4.258-6.055-3.892-6.055-3.892c-3.972,5.451-11.342,15.296-16.121,20.121
	c-0.521-0.198-1.093-0.311-1.693-0.311h-0.718l-2.006,4.311v22.747c-1.752,0.052-3.646,0.204-5.45,0.396V85.515l-2.293-4.565h-2.294
	c-0.416,0-0.807,0.068-1.183,0.165c-5.065-4.553-12.951-12.393-16.84-17.724c0,0-7.229-1.798-6.055,3.274
	c1.639,1.986,12.387,16.809,19.773,25.286v16.303c0,0.35,0.069,0.593,0.166,0.793c0.024,0.568,0.236,1.906,0.852,4.73
	c0.851,6.943,9.916,25.759,9.949,25.707c2.166,4.37,4.601,8.627,7.409,12.731c2.889,4.231,10.332,0.364,7.428-3.888
	C257.015,142.5,248.674,123.929,247.238,119.176z M235.902,109.549c0,0-0.002-0.003-0.002-0.006
	c0.002,0.003,0.004,0.005,0.006,0.006H235.902z"/>
<path fill="#FF2A70" d="M321.952,139.321l30.698-44.182v-0.382h-27.923v-12.05h46.76v8.417l-30.026,43.605v0.384h30.507v12.046
	h-50.015V139.321z"/>
<path fill="#FF2A70" d="M396.925,130.616l-4.59,16.542H377.32l19.605-64.451h19.123l20.082,64.451h-15.778l-4.973-16.542H396.925z
	 M413.277,119.716l-4.016-13.676c-1.151-3.826-2.298-8.606-3.251-12.43h-0.194c-0.954,3.824-1.911,8.702-2.965,12.43l-3.822,13.676
	H413.277z"/>
<path fill="#FF2A70" d="M499.145,122.488c-0.286-7.746-0.573-17.117-0.573-26.489h-0.189c-2.104,8.225-4.783,17.406-7.268,24.958
	l-7.841,25.15h-11.38l-6.887-24.864c-2.102-7.649-4.206-16.829-5.834-25.244h-0.19c-0.288,8.702-0.67,18.647-1.051,26.678
	l-1.245,24.48h-13.484l4.112-64.451h19.414l6.312,21.517c2.104,7.458,4.016,15.492,5.449,23.043h0.383
	c1.722-7.458,3.92-15.968,6.121-23.14l6.79-21.42h19.124l3.442,64.451h-14.151L499.145,122.488z"/>
<path fill="#FF2A70" d="M540.075,82.707v37.009c0,11.187,4.306,16.83,11.667,16.83c7.65,0,11.859-5.356,11.859-16.83V82.707h14.535
	v36.149c0,19.891-10.042,29.355-26.872,29.355c-16.256,0-25.725-9.084-25.725-29.55V82.707H540.075z"/>
<path fill="#FF2A70" d="M590.757,147.158V82.707h17.022l13.388,23.62c3.825,6.791,7.555,14.824,10.52,22.091h0.19
	c-0.86-8.512-1.147-17.213-1.147-26.967V82.707h13.388v64.451h-15.299l-13.771-24.861c-3.824-6.885-8.128-15.204-11.189-22.759
	h-0.38c0.477,8.606,0.666,17.689,0.666,28.209v19.411H590.757z"/>
<path fill="#FF2A70" d="M656.737,83.664c5.356-0.86,12.338-1.434,19.604-1.434c12.337,0,20.368,2.295,26.488,6.884
	c6.694,4.973,10.903,12.911,10.903,24.292c0,12.334-4.497,20.847-10.617,26.102c-6.786,5.644-17.213,8.322-29.833,8.322
	c-7.558,0-13.007-0.478-16.546-0.957V83.664z M671.272,136.162c1.244,0.29,3.349,0.29,5.069,0.29
	c13.291,0.094,21.996-7.174,21.996-22.57c0-13.388-7.842-20.464-20.466-20.464c-3.155,0-5.355,0.287-6.6,0.574V136.162z"/>
<path fill="#FF2A70" d="M736.779,130.616l-4.59,16.542h-15.015l19.604-64.451h19.124l20.081,64.451h-15.778l-4.97-16.542H736.779z
	 M753.132,119.716l-4.019-13.676c-1.147-3.826-2.295-8.606-3.249-12.43h-0.193c-0.953,3.824-1.911,8.702-2.966,12.43l-3.821,13.676
	H753.132z"/>
<path fill="#FFFFFF" d="M150.992,83.936c5.355-0.86,12.335-1.434,19.603-1.434c12.336,0,20.368,2.294,26.488,6.884
	c6.694,4.973,10.903,12.911,10.903,24.291c0,12.332-4.496,20.845-10.616,26.104c-6.789,5.644-17.211,8.322-29.835,8.322
	c-7.554,0-13.006-0.48-16.543-0.957V83.936z M165.527,136.436c1.242,0.287,3.346,0.287,5.068,0.287
	c13.292,0.093,21.994-7.175,21.994-22.569c0-13.388-7.841-20.465-20.463-20.465c-3.157,0-5.356,0.287-6.599,0.574V136.436z"/>
<path fill="#FFFFFF" d="M230.17,82.979h14.535v40.736c0,18.361-8.797,24.768-22.854,24.768c-3.442,0-7.841-0.574-10.709-1.527
	l1.624-11.764c2.01,0.671,4.591,1.147,7.459,1.147c6.12,0,9.946-2.771,9.946-12.717V82.979z"/>
</svg>
