<?xml version="1.0" encoding="utf-8"?>
<!-- Generator: Adobe Illustrator 15.0.0, SVG Export Plug-In . SVG Version: 6.00 Build 0)  -->
<!DOCTYPE svg PUBLIC "-//W3C//DTD SVG 1.1//EN" "http://www.w3.org/Graphics/SVG/1.1/DTD/svg11.dtd">
<svg version="1.1" id="Ebene_1" xmlns="http://www.w3.org/2000/svg" xmlns:xlink="http://www.w3.org/1999/xlink" x="0px" y="0px"
	 width="183px" height="43px" viewBox="0 0 183 43" enable-background="new 0 0 183 43" xml:space="preserve">
<path fill="#FF2A70" d="M628.424,18.83l8.988-12.936V5.782h-8.176V2.254h13.691v2.464l-8.791,12.768v0.112h8.933v3.528h-14.646
	V18.83z"/>
<path fill="#FF2A70" d="M650.376,16.282l-1.344,4.844h-4.396l5.739-18.872h5.601l5.88,18.872h-4.62l-1.456-4.844H650.376
	L650.376,16.282z M655.164,13.09l-1.176-4.004c-0.337-1.12-0.673-2.52-0.952-3.64h-0.058c-0.278,1.12-0.559,2.548-0.867,3.64
	l-1.119,4.004H655.164z"/>
<path fill="#FF2A70" d="M680.306,13.902c-0.084-2.268-0.168-5.012-0.168-7.756h-0.056c-0.616,2.408-1.399,5.096-2.128,7.308
	l-2.296,7.364h-3.332l-2.018-7.28c-0.614-2.24-1.23-4.928-1.707-7.392h-0.057c-0.084,2.548-0.195,5.46-0.308,7.813l-0.364,7.168
	h-3.947l1.205-18.872h5.686l1.848,6.3c0.616,2.184,1.177,4.536,1.597,6.748h0.111c0.504-2.184,1.146-4.676,1.792-6.776l1.988-6.272
	h5.601l1.008,18.872h-4.145L680.306,13.902z"/>
<path fill="#FF2A70" d="M692.291,2.254V13.09c0,3.276,1.261,4.928,3.416,4.928c2.24,0,3.474-1.568,3.474-4.928V2.254h4.256v10.584
	c0,5.824-2.94,8.596-7.868,8.596c-4.761,0-7.532-2.66-7.532-8.652V2.254H692.291z"/>
<path fill="#FF2A70" d="M707.132,21.126V2.254h4.983l3.92,6.916c1.12,1.988,2.212,4.34,3.08,6.468h0.056
	c-0.252-2.492-0.336-5.04-0.336-7.896V2.254h3.92v18.872h-4.479l-4.032-7.28c-1.12-2.016-2.38-4.452-3.276-6.664h-0.11
	c0.14,2.52,0.194,5.18,0.194,8.26v5.684H707.132z"/>
<path fill="#FF2A70" d="M726.45,2.534c1.568-0.252,3.611-0.42,5.74-0.42c3.611,0,5.964,0.672,7.756,2.016
	c1.96,1.456,3.191,3.78,3.191,7.112c0,3.612-1.315,6.104-3.107,7.644c-1.986,1.652-5.04,2.436-8.734,2.436
	c-2.214,0-3.81-0.14-4.846-0.28V2.534z M730.706,17.906c0.364,0.084,0.98,0.084,1.484,0.084c3.892,0.028,6.439-2.1,6.439-6.608
	c0-3.92-2.296-5.992-5.992-5.992c-0.924,0-1.567,0.084-1.933,0.168L730.706,17.906L730.706,17.906z"/>
<path fill="#FF2A70" d="M749.888,16.282l-1.344,4.844h-4.396l5.74-18.872h5.6l5.879,18.872h-4.62l-1.455-4.844H749.888
	L749.888,16.282z M754.675,13.09l-1.177-4.004c-0.336-1.12-0.672-2.52-0.95-3.64h-0.058c-0.278,1.12-0.56,2.548-0.868,3.64
	l-1.119,4.004H754.675z"/>
<path fill="#FFFFFF" d="M580.191,29.241v4.794h5.65v-4.794h1.525v11.457h-1.523v-5.371h-5.652v5.371h-1.525V29.241H580.191z"/>
<path fill="#FFFFFF" d="M598.637,37.095l-1.213,3.604h-1.561l3.986-11.457h1.804l3.985,11.457h-1.611l-1.248-3.604H598.637z
	 M602.486,35.939l-1.162-3.298c-0.26-0.748-0.434-1.428-0.607-2.092h-0.033c-0.174,0.664-0.348,1.377-0.59,2.074l-1.145,3.314
	L602.486,35.939L602.486,35.939z"/>
<path fill="#FFFFFF" d="M614.12,29.378c0.728-0.119,1.683-0.222,2.896-0.222c1.49,0,2.582,0.34,3.275,0.952
	c0.624,0.544,1.021,1.377,1.021,2.396c0,1.037-0.312,1.853-0.9,2.447c-0.814,0.833-2.097,1.258-3.57,1.258
	c-0.451,0-0.867-0.018-1.213-0.103v4.59h-1.509V29.378z M615.629,34.902c0.329,0.085,0.745,0.118,1.247,0.118
	c1.82,0,2.931-0.883,2.931-2.43c0-1.529-1.109-2.262-2.756-2.262c-0.66,0-1.162,0.051-1.422,0.119V34.902z"/>
<path fill="#FFFFFF" d="M630.105,29.378c0.728-0.119,1.681-0.222,2.895-0.222c1.49,0,2.583,0.34,3.276,0.952
	c0.624,0.544,1.022,1.377,1.022,2.396c0,1.037-0.313,1.853-0.9,2.447c-0.815,0.833-2.098,1.258-3.571,1.258
	c-0.45,0-0.866-0.018-1.213-0.103v4.59h-1.508L630.105,29.378L630.105,29.378z M631.613,34.902c0.329,0.085,0.745,0.118,1.248,0.118
	c1.82,0,2.929-0.883,2.929-2.43c0-1.529-1.108-2.262-2.756-2.262c-0.658,0-1.161,0.051-1.421,0.119V34.902z"/>
<path fill="#FFFFFF" d="M648.533,40.698v-4.861l-3.709-6.596h1.732l1.646,3.162c0.434,0.865,0.798,1.563,1.162,2.361h0.035
	c0.313-0.748,0.729-1.496,1.179-2.361l1.683-3.162h1.697l-3.9,6.578v4.879H648.533z"/>
<path fill="#FFFFFF" d="M672.511,29.378c0.729-0.119,1.683-0.222,2.896-0.222c1.491,0,2.583,0.34,3.276,0.952
	c0.623,0.544,1.021,1.377,1.021,2.396c0,1.037-0.313,1.853-0.9,2.447c-0.814,0.833-2.099,1.258-3.57,1.258
	c-0.451,0-0.867-0.018-1.215-0.103v4.59h-1.508V29.378z M674.019,34.902c0.328,0.085,0.744,0.118,1.248,0.118
	c1.82,0,2.93-0.883,2.93-2.43c0-1.529-1.109-2.262-2.756-2.262c-0.659,0-1.161,0.051-1.422,0.119V34.902z"/>
<path fill="#FFFFFF" d="M694.527,35.327h-4.524v4.131h5.063v1.24h-6.588V29.241h6.328v1.241h-4.803v3.62h4.524V35.327z"/>
<path fill="#FFFFFF" d="M713.771,34.851c0,3.928-2.444,6.035-5.426,6.035c-3.104,0-5.252-2.362-5.252-5.83
	c0-3.639,2.287-6.019,5.407-6.019C711.708,29.037,713.771,31.435,713.771,34.851z M704.687,35.021c0,2.466,1.353,4.658,3.744,4.658
	c2.393,0,3.744-2.158,3.744-4.76c0-2.295-1.213-4.675-3.727-4.675S704.687,32.523,704.687,35.021z"/>
<path fill="#FFFFFF" d="M722.493,29.378c0.729-0.119,1.682-0.222,2.895-0.222c1.492,0,2.584,0.34,3.276,0.952
	c0.624,0.544,1.022,1.377,1.022,2.396c0,1.037-0.313,1.853-0.901,2.447c-0.813,0.833-2.099,1.258-3.569,1.258
	c-0.451,0-0.867-0.018-1.215-0.103v4.59h-1.508V29.378z M724.001,34.902c0.329,0.085,0.745,0.118,1.248,0.118
	c1.82,0,2.93-0.883,2.93-2.43c0-1.529-1.108-2.262-2.756-2.262c-0.658,0-1.16,0.051-1.422,0.119V34.902z"/>
<path fill="#FFFFFF" d="M738.46,29.241h1.525v10.217h4.992v1.24h-6.519L738.46,29.241L738.46,29.241z"/>
<path fill="#FFFFFF" d="M759.454,35.327h-4.523v4.131h5.062v1.24h-6.587V29.241h6.327v1.241h-4.802v3.62h4.523V35.327
	L759.454,35.327z"/>
<path fill="#FFFFFF" d="M578.366,2.614c1.567-0.252,3.612-0.42,5.74-0.42c3.612,0,5.964,0.672,7.756,2.016
	c1.96,1.456,3.192,3.78,3.192,7.112c0,3.611-1.316,6.104-3.108,7.644c-1.988,1.652-5.04,2.437-8.735,2.437
	c-2.213,0-3.809-0.141-4.845-0.28V2.614z M582.622,17.986c0.364,0.084,0.979,0.084,1.484,0.084c3.892,0.027,6.44-2.101,6.44-6.608
	c0-3.92-2.297-5.992-5.992-5.992c-0.924,0-1.568,0.084-1.933,0.168V17.986z"/>
<path fill="#FFFFFF" d="M601.551,2.333h4.256v11.928c0,5.376-2.576,7.252-6.692,7.252c-1.008,0-2.296-0.168-3.136-0.447l0.476-3.444
	c0.588,0.196,1.345,0.336,2.185,0.336c1.791,0,2.912-0.813,2.912-3.724V2.333z"/>
<g>
	<path fill="#FF2A70" d="M18.338,8.501c-0.092-0.437-0.16-0.942-0.199-1.516c-0.041-0.573-0.027-1.413,0.037-2.521
		c0.042-0.708,0.098-1.42,0.169-2.142c0.072-0.721,0.24-1.336,0.506-1.846c1.423,0.375,2.944,0.732,4.562,1.068
		c1.616,0.337,3.271,0.652,4.965,0.946c1.693,0.293,3.393,0.489,5.098,0.589c1.705,0.099,3.351,0.196,4.938,0.289
		c2.175,0.127,3.926,0.193,5.253,0.196c0.429,0.725,0.675,1.567,0.737,2.524c0.063,0.958,0.069,1.851,0.021,2.674
		c-3.461,1.164-6.767,2.708-9.916,4.632c-3.152,1.924-6.028,3.958-8.632,6.103c-2.603,2.144-4.867,4.281-6.79,6.407
		c-1.925,2.126-3.375,3.99-4.354,5.589c0.537-0.073,1.084-0.135,1.649-0.191c0.562-0.055,1.17-0.099,1.821-0.13
		c0.652-0.033,1.375-0.059,2.174-0.081c0.796-0.024,1.71-0.005,2.739,0.055c1.44,0.083,2.71,0.044,3.811-0.12
		c1.101-0.163,2.041-0.354,2.821-0.566c0.779-0.213,1.404-0.42,1.873-0.619c0.468-0.201,0.81-0.372,1.025-0.513
		c0.102,0.271,0.218,0.67,0.35,1.204c0.131,0.531,0.244,1.115,0.34,1.748c0.095,0.633,0.168,1.28,0.218,1.938
		c0.051,0.659,0.059,1.266,0.027,1.817c-0.017,0.293-0.036,0.488-0.056,0.588c-0.021,0.104-0.05,0.21-0.085,0.324
		c-1.323-0.078-2.649-0.226-3.979-0.443c-1.33-0.22-2.655-0.364-3.978-0.442c-1.763-0.103-3.598-0.115-5.506-0.035
		c-1.907,0.081-3.747,0.27-5.518,0.563c-1.773,0.293-3.404,0.706-4.896,1.24c-1.49,0.531-2.703,1.198-3.634,1.999
		c-0.191-0.778-0.396-1.447-0.613-2.007c-0.218-0.559-0.304-1.222-0.259-1.986c0.045-0.765,0.235-1.368,0.57-1.806
		s0.776-0.789,1.322-1.053c1.911-2.429,4.065-4.819,6.458-7.174c2.395-2.357,4.938-4.624,7.632-6.798
		c2.694-2.175,5.468-4.235,8.326-6.18c2.857-1.945,5.703-3.705,8.539-5.282c-1.765-0.104-3.631-0.213-5.6-0.327
		c-1.382-0.082-2.749-0.162-4.101-0.241C26.854,6.897,25.569,6.904,24.355,7c-1.216,0.094-2.339,0.268-3.371,0.522
		C19.95,7.776,19.069,8.102,18.338,8.501z"/>
	<path fill="#FF2A70" d="M55.643,17.474c0.294,0.017,0.637,0.088,1.026,0.214c0.391,0.127,0.743,0.28,1.059,0.461
		c0.313,0.179,0.574,0.364,0.785,0.554c0.21,0.188,0.311,0.359,0.303,0.503c-0.661,1.201-1.278,2.412-1.85,3.631
		c-0.574,1.222-1.069,2.393-1.489,3.52c-0.418,1.125-0.755,2.184-1.004,3.171c-0.25,0.987-0.395,1.851-0.438,2.584
		c-0.048,0.823-0.001,1.513,0.144,2.066c0.146,0.555,0.415,0.962,0.814,1.219c-0.366,0.218-0.833,0.38-1.4,0.495
		s-1.072,0.157-1.511,0.131c-1.589-0.091-2.318-1.225-2.191-3.4c0.098-1.677,0.791-3.938,2.078-6.781
		c-0.667,1.311-1.416,2.538-2.251,3.68c-0.833,1.14-1.673,2.141-2.519,3.003c-0.847,0.86-1.69,1.552-2.532,2.075
		c-0.842,0.523-1.604,0.823-2.288,0.902c-1.087-0.063-1.941-0.61-2.56-1.639c-0.618-1.027-0.881-2.311-0.792-3.846
		c0.097-1.653,0.551-3.373,1.362-5.162c0.813-1.787,1.817-3.434,3.01-4.933c1.195-1.5,2.468-2.736,3.822-3.708
		c1.355-0.973,2.635-1.424,3.84-1.354c0.289,0.106,0.608,0.302,0.961,0.586c0.353,0.286,0.687,0.615,1.004,0.986
		c0.318,0.372,0.583,0.747,0.798,1.128c0.213,0.379,0.327,0.703,0.341,0.97c-1.188,0.104-2.433,0.606-3.739,1.502
		c-1.306,0.893-2.506,1.994-3.6,3.298c-1.093,1.305-2.01,2.714-2.747,4.231c-0.738,1.516-1.146,2.948-1.226,4.297
		c-0.032,0.557,0.152,0.922,0.556,1.094c0.863-0.129,1.891-0.797,3.083-2.012c1.19-1.214,2.658-3.112,4.402-5.694
		c0.325-0.51,0.689-1.079,1.096-1.703c0.404-0.625,0.819-1.281,1.243-1.962c0.422-0.686,0.839-1.377,1.249-2.074
		C54.894,18.809,55.279,18.131,55.643,17.474z"/>
	<path fill="#FF2A70" d="M86.388,23.584c-0.47-0.027-1.061,0.229-1.77,0.762c-0.71,0.535-1.481,1.23-2.312,2.082
		c-0.832,0.853-1.698,1.799-2.6,2.838c-0.901,1.04-1.772,2.075-2.615,3.104c-0.842,1.03-1.628,1.995-2.358,2.896
		c-0.732,0.905-1.35,1.622-1.853,2.154c-0.631-0.305-1.167-0.725-1.607-1.269c-0.44-0.54-0.74-1.199-0.901-1.977
		c0.2-0.9,0.461-1.834,0.783-2.802c0.322-0.967,0.726-1.966,1.215-2.997c0.488-1.035,1.082-2.11,1.782-3.232
		c0.699-1.123,1.542-2.302,2.529-3.54c-0.441-0.026-1.062,0.241-1.86,0.799c-0.801,0.559-1.669,1.291-2.607,2.195
		c-0.937,0.905-1.911,1.927-2.922,3.064c-1.01,1.137-1.959,2.255-2.851,3.354c-1.178,1.469-2.16,2.753-2.947,3.859
		c-0.788,1.105-1.348,1.754-1.683,1.94c-0.733-0.603-1.226-1.235-1.482-1.901c-0.255-0.664-0.434-1.396-0.534-2.199
		c0.069-0.703,0.231-1.577,0.484-2.626c0.252-1.047,0.589-2.118,1.008-3.215c0.8-2.106,1.799-4.188,2.996-6.239
		c1.197-2.056,2.347-3.936,3.45-5.64c0.812,0.225,1.539,0.547,2.178,0.968c0.639,0.421,1.304,1.02,1.996,1.797
		c-0.347,0.896-0.858,1.831-1.537,2.809c-0.676,0.979-1.385,2.007-2.126,3.083c-0.742,1.08-1.426,2.188-2.053,3.333
		c-0.626,1.143-1.064,2.312-1.312,3.507c0.893-1.129,1.948-2.424,3.17-3.887c1.221-1.462,2.467-2.834,3.736-4.117
		c1.27-1.281,2.52-2.359,3.75-3.232c1.231-0.871,2.317-1.28,3.257-1.225c0.354,0.02,0.731,0.102,1.136,0.243
		c0.405,0.142,0.779,0.311,1.122,0.508c0.343,0.198,0.627,0.385,0.852,0.56c0.225,0.174,0.352,0.308,0.375,0.398
		c-0.182,0.578-0.575,1.359-1.177,2.342c-0.604,0.982-1.247,2.015-1.928,3.095c-0.684,1.081-1.319,2.128-1.91,3.141
		c-0.59,1.013-0.947,1.825-1.073,2.438c1.556-1.886,3.013-3.592,4.371-5.121c1.357-1.526,2.628-2.832,3.813-3.915
		c1.184-1.081,2.271-1.9,3.264-2.462c0.991-0.562,1.913-0.818,2.765-0.768c0.587,0.035,1.13,0.22,1.627,0.56
		c0.495,0.339,0.83,0.808,1.001,1.409c-0.316,0.866-0.812,1.898-1.486,3.099c-0.676,1.199-1.361,2.464-2.059,3.795
		c-0.698,1.329-1.327,2.642-1.89,3.937c-0.562,1.295-0.874,2.472-0.936,3.528c-0.036,0.62,0.028,1.027,0.194,1.229
		c0.166,0.201,0.409,0.31,0.732,0.329c0.354,0.022,0.688-0.024,1.004-0.142c0.316-0.111,0.546-0.164,0.694-0.157
		c0.169,0.13,0.264,0.282,0.284,0.459c0.018,0.179,0.024,0.344,0.015,0.489c-0.616,0.433-1.241,0.789-1.875,1.061
		c-0.636,0.274-1.336,0.389-2.1,0.343c-0.706-0.041-1.28-0.192-1.721-0.454c-0.443-0.262-0.798-0.606-1.067-1.033
		c-0.271-0.43-0.448-0.911-0.535-1.447c-0.088-0.534-0.112-1.108-0.077-1.725c0.058-1.001,0.25-1.981,0.573-2.95
		c0.321-0.967,0.691-1.888,1.112-2.761c0.418-0.875,0.856-1.688,1.314-2.442S86.058,24.186,86.388,23.584z"/>
	<path fill="#FF2A70" d="M105.894,37.313c-0.533-0.502-0.872-1.112-1.022-1.828c-0.15-0.719-0.21-1.326-0.181-1.825
		c0.037-0.618,0.141-1.143,0.313-1.576c-0.117-0.006-0.396,0.214-0.835,0.659c-0.44,0.444-0.919,0.975-1.441,1.59
		c-0.522,0.617-1.039,1.217-1.545,1.809c-0.505,0.586-0.886,1.021-1.138,1.299c-0.404,0.389-0.784,0.688-1.137,0.904
		c-0.352,0.213-0.633,0.332-0.84,0.346c-0.471-0.025-0.957-0.138-1.461-0.328c-0.508-0.194-0.977-0.452-1.414-0.774
		c-0.439-0.322-0.814-0.698-1.129-1.135c-0.315-0.434-0.514-0.919-0.602-1.459c0.048-0.823,0.109-1.498,0.186-2.024
		s0.203-1.095,0.387-1.702c0.33-1.104,0.793-2.343,1.391-3.726c0.596-1.38,1.273-2.734,2.029-4.061
		c0.757-1.327,1.588-2.563,2.495-3.704c0.906-1.142,1.851-2.023,2.831-2.645c0.265,0.016,0.572,0.056,0.924,0.122
		c0.349,0.064,0.701,0.167,1.065,0.306c0.357,0.139,0.705,0.299,1.032,0.48c0.329,0.182,0.604,0.411,0.823,0.689
		c-0.282,0.279-1.008,1.226-2.179,2.837c-1.171,1.611-2.511,3.954-4.018,7.021c-0.165,0.315-0.37,0.775-0.611,1.38
		c-0.241,0.605-0.485,1.239-0.73,1.903c-0.248,0.666-0.454,1.315-0.623,1.955c-0.17,0.64-0.267,1.151-0.289,1.533
		c-0.014,0.235,0.012,0.412,0.08,0.534c0.065,0.124,0.127,0.215,0.183,0.276c0.45-0.15,1.036-0.604,1.76-1.356
		c0.724-0.755,1.736-1.921,3.036-3.495c0.318-0.395,0.691-0.846,1.12-1.35c0.426-0.507,0.863-1.05,1.312-1.628
		c0.446-0.578,0.871-1.182,1.276-1.806c0.407-0.625,0.746-1.253,1.019-1.887c0.138-0.346,0.315-0.756,0.536-1.229
		s0.485-0.968,0.795-1.479s0.664-1.03,1.063-1.553c0.4-0.522,0.861-1.003,1.39-1.445c0.382,0.022,0.79,0.089,1.227,0.204
		c0.437,0.114,0.85,0.248,1.238,0.404c0.389,0.155,0.728,0.323,1.011,0.501c0.284,0.18,0.494,0.361,0.632,0.547
		c-0.605,1.262-1.27,2.507-1.988,3.733c-0.723,1.224-1.396,2.433-2.027,3.619c-0.629,1.186-1.17,2.373-1.622,3.554
		c-0.452,1.184-0.715,2.349-0.781,3.496c-0.035,0.617-0.016,1.156,0.061,1.616c0.077,0.463,0.165,0.852,0.263,1.168
		c0.102,0.315,0.197,0.58,0.289,0.791c0.089,0.208,0.128,0.391,0.12,0.538c-0.001,0.028-0.031,0.07-0.095,0.127
		c-0.029,0.027-0.061,0.041-0.089,0.039c-0.207-0.012-0.47-0.073-0.788-0.179c-0.318-0.109-0.67-0.255-1.057-0.438
		c-0.387-0.186-0.773-0.392-1.161-0.62C106.595,37.812,106.232,37.568,105.894,37.313z"/>
	<path fill="#FF2A70" d="M124.019,17.89c0.749,0.28,1.439,0.844,2.067,1.691c0.628,0.849,1.078,1.767,1.345,2.755
		c-0.371,0.776-0.927,1.701-1.668,2.778c-0.74,1.078-1.484,2.177-2.228,3.3c-0.745,1.12-1.419,2.188-2.022,3.198
		c-0.604,1.012-0.972,1.854-1.1,2.525c0.5-0.472,1.054-1.023,1.665-1.65c0.614-0.628,1.211-1.258,1.794-1.887
		c0.581-0.628,1.125-1.203,1.626-1.718c0.501-0.518,0.895-0.899,1.175-1.149c0.592-0.553,1.292-1.199,2.102-1.934
		c0.812-0.733,1.655-1.423,2.533-2.064s1.758-1.179,2.639-1.616c0.88-0.435,1.674-0.631,2.38-0.59
		c0.765,0.044,1.388,0.34,1.875,0.883c0.48,0.546,0.853,1.106,1.116,1.681c-0.004,0.061-0.117,0.135-0.345,0.224
		c-0.227,0.092-0.562,0.358-0.999,0.804c-0.441,0.508-0.946,1.207-1.516,2.103c-0.57,0.896-1.127,1.865-1.677,2.909
		c-0.546,1.044-1.014,2.117-1.402,3.214c-0.391,1.099-0.61,2.104-0.665,3.014c-0.041,0.738,0.025,1.212,0.206,1.429
		c0.179,0.218,0.443,0.337,0.798,0.356c0.323,0.02,0.664-0.033,1.027-0.161c0.362-0.127,0.643-0.182,0.849-0.172
		c0.114,0.066,0.203,0.198,0.265,0.393c0.063,0.196,0.092,0.366,0.083,0.513c-0.249,0.194-0.54,0.382-0.875,0.568
		c-0.337,0.188-0.685,0.357-1.047,0.515c-0.364,0.155-0.72,0.281-1.063,0.379c-0.347,0.1-0.65,0.142-0.914,0.126
		c-0.854-0.052-1.545-0.218-2.073-0.497c-0.531-0.284-0.936-0.639-1.221-1.068c-0.284-0.428-0.469-0.934-0.552-1.516
		c-0.087-0.579-0.108-1.192-0.07-1.84c0.021-0.352,0.073-0.747,0.159-1.185c0.081-0.437,0.231-0.952,0.443-1.545
		c0.212-0.591,0.502-1.299,0.874-2.117c0.373-0.817,0.843-1.801,1.414-2.948c-0.06-0.002-0.471,0.18-1.229,0.549
		c-0.757,0.367-1.589,0.954-2.491,1.758c-1.46,1.241-2.777,2.477-3.954,3.706c-1.179,1.228-2.388,2.604-3.627,4.122
		c-0.698,0.876-1.31,1.611-1.831,2.217c-0.521,0.603-0.967,0.997-1.333,1.183c-0.597-0.389-1.022-0.909-1.279-1.559
		c-0.258-0.647-0.438-1.314-0.547-1.999c0.032-0.559,0.154-1.26,0.366-2.104c0.211-0.842,0.487-1.777,0.829-2.805
		c0.339-1.026,0.748-2.102,1.228-3.223c0.479-1.122,1-2.244,1.569-3.361c1.269-2.521,2.407-4.489,3.42-5.905
		C123.149,18.753,123.775,17.993,124.019,17.89z"/>
	<path fill="#FF2A70" d="M150.252,20.22c0.586,0.035,1.252,0.25,1.996,0.649c0.743,0.396,1.394,0.892,1.948,1.485
		c-0.078-1.185-0.197-2.306-0.356-3.363c-0.16-1.055-0.419-2.155-0.779-3.297c-0.362-1.142-0.855-2.395-1.487-3.76
		c-0.623-1.364-1.418-2.929-2.377-4.696c0.104-0.259,0.318-0.556,0.648-0.891c0.33-0.334,0.701-0.644,1.115-0.93
		c0.416-0.285,0.844-0.533,1.283-0.744c0.44-0.209,0.854-0.333,1.239-0.369c0.771,0.959,1.482,2.143,2.138,3.553
		s1.215,2.918,1.681,4.523c0.466,1.606,0.804,3.255,1.018,4.948c0.209,1.694,0.272,3.305,0.182,4.833
		c-0.09,1.528-0.35,3.092-0.783,4.688c-0.434,1.598-0.996,3.148-1.688,4.658c-0.692,1.508-1.477,2.93-2.352,4.264
		c-0.875,1.337-1.805,2.52-2.797,3.554c-0.987,1.033-2.005,1.867-3.044,2.498c-1.039,0.633-2.064,1.008-3.072,1.124
		c-2.016-0.353-3.528-1.098-4.538-2.233c-1.011-1.135-1.46-2.642-1.351-4.525c0.058-0.998,0.275-2.077,0.654-3.235
		c0.377-1.156,0.856-2.302,1.439-3.434c0.583-1.13,1.249-2.228,2.007-3.289c0.754-1.063,1.546-2.012,2.377-2.848
		c0.832-0.835,1.663-1.54,2.492-2.111C148.675,20.703,149.476,20.351,150.252,20.22z M144.513,41.166
		c1.048-0.294,2.124-1.011,3.224-2.157c1.1-1.146,2.108-2.509,3.027-4.092c0.916-1.583,1.688-3.293,2.312-5.132
		c0.623-1.837,0.986-3.619,1.088-5.355c0.029-0.5,0.048-0.807,0.055-0.926c0.008-0.116-0.001-0.235-0.024-0.354
		c-0.722,0.253-1.502,0.708-2.336,1.368c-0.834,0.658-1.678,1.43-2.524,2.308c-0.849,0.88-1.657,1.843-2.424,2.889
		c-0.771,1.048-1.466,2.096-2.088,3.151c-0.621,1.058-1.125,2.073-1.507,3.055c-0.382,0.98-0.595,1.853-0.639,2.615
		C142.591,40.006,143.203,40.881,144.513,41.166z"/>
	<path fill="#FF2A70" d="M174.78,24.441c0.295,0.018,0.637,0.088,1.027,0.214c0.392,0.128,0.742,0.281,1.058,0.462
		c0.313,0.18,0.574,0.364,0.786,0.554c0.209,0.19,0.31,0.357,0.302,0.504c-0.659,1.201-1.276,2.412-1.851,3.632
		c-0.572,1.222-1.068,2.393-1.489,3.52c-0.419,1.124-0.754,2.182-1.004,3.171c-0.249,0.986-0.394,1.85-0.437,2.585
		c-0.049,0.823,0,1.511,0.143,2.063c0.146,0.556,0.418,0.963,0.814,1.22c-0.366,0.216-0.833,0.379-1.399,0.495
		c-0.567,0.114-1.072,0.159-1.514,0.133c-1.587-0.093-2.315-1.228-2.188-3.402c0.098-1.676,0.79-3.937,2.077-6.78
		c-0.667,1.313-1.417,2.539-2.249,3.678c-0.837,1.142-1.675,2.144-2.522,3.003c-0.847,0.861-1.69,1.553-2.531,2.076
		c-0.845,0.522-1.605,0.825-2.287,0.902c-1.089-0.063-1.944-0.608-2.562-1.638c-0.616-1.028-0.88-2.312-0.79-3.845
		c0.095-1.654,0.55-3.375,1.362-5.165c0.813-1.787,1.815-3.432,3.011-4.932c1.193-1.501,2.467-2.736,3.821-3.708
		c1.355-0.974,2.635-1.424,3.84-1.354c0.287,0.107,0.609,0.302,0.962,0.589c0.354,0.282,0.688,0.612,1.005,0.983
		c0.316,0.371,0.581,0.747,0.796,1.128c0.214,0.38,0.329,0.703,0.342,0.968c-1.187,0.109-2.433,0.61-3.738,1.504
		c-1.306,0.895-2.508,1.995-3.6,3.299c-1.094,1.305-2.011,2.715-2.748,4.23c-0.735,1.518-1.145,2.95-1.224,4.3
		c-0.033,0.555,0.152,0.92,0.557,1.091c0.861-0.128,1.889-0.798,3.08-2.012c1.192-1.212,2.66-3.109,4.403-5.693
		c0.324-0.51,0.69-1.079,1.096-1.704c0.404-0.624,0.818-1.28,1.244-1.963c0.423-0.684,0.84-1.374,1.249-2.072
		C174.032,25.778,174.418,25.102,174.78,24.441z"/>
</g>
<g>
	<path fill="#FFFFFF" d="M70.913,2.097c1.103-0.177,2.542-0.295,4.039-0.295c2.542,0,4.195,0.472,5.457,1.418
		c1.378,1.025,2.246,2.659,2.246,5.003c0,2.542-0.927,4.295-2.188,5.378c-1.398,1.162-3.546,1.713-6.146,1.713
		c-1.556,0-2.679-0.098-3.408-0.196V2.097z M73.907,12.911c0.255,0.059,0.689,0.059,1.044,0.059c2.738,0.02,4.53-1.478,4.53-4.649
		c0-2.758-1.615-4.215-4.215-4.215c-0.65,0-1.103,0.059-1.358,0.118V12.911z"/>
	<path fill="#FFFFFF" d="M87.221,1.9h2.995v8.392c0,3.782-1.813,5.102-4.708,5.102c-0.709,0-1.615-0.118-2.206-0.315l0.334-2.423
		c0.414,0.138,0.946,0.236,1.536,0.236c1.261,0,2.05-0.571,2.05-2.62V1.9z"/>
</g>
<g>
	<path fill="#FFFFFF" d="M284.181,83.568c0.751-0.127,1.806-0.223,3.292-0.223c1.504,0,2.574,0.287,3.293,0.863
		c0.703,0.543,1.15,1.438,1.15,2.493s-0.334,1.966-0.99,2.558c-0.831,0.768-2.063,1.135-3.5,1.135c-0.32,0-0.607-0.017-0.832-0.064
		v3.868h-2.413V83.568z M286.594,88.461c0.208,0.047,0.447,0.063,0.816,0.063c1.294,0,2.094-0.655,2.094-1.743
		c0-0.99-0.688-1.582-1.918-1.582c-0.48,0-0.816,0.032-0.992,0.08V88.461z"/>
	<path fill="#FFFFFF" d="M295.017,91.433l-0.768,2.766h-2.509l3.276-10.772h3.196l3.356,10.772h-2.638l-0.83-2.766H295.017z
		 M297.75,89.611l-0.672-2.286c-0.191-0.64-0.383-1.438-0.543-2.078h-0.033c-0.159,0.64-0.318,1.455-0.494,2.078l-0.641,2.286
		H297.75z"/>
	<path fill="#FFFFFF" d="M304.861,83.426v6.186c0,1.869,0.719,2.813,1.949,2.813c1.279,0,1.982-0.895,1.982-2.813v-6.186h2.429
		v6.041c0,3.324-1.678,4.907-4.49,4.907c-2.718,0-4.3-1.519-4.3-4.939v-6.009H304.861z"/>
	<path fill="#FFFFFF" d="M313.347,83.426h2.429v8.727h4.284v2.046h-6.713V83.426z"/>
</g>
<g>
	<path fill="#FFFFFF" d="M94.9,2.077c0.925-0.157,2.225-0.275,4.058-0.275c1.853,0,3.171,0.354,4.059,1.064
		c0.866,0.67,1.417,1.773,1.417,3.073s-0.414,2.422-1.221,3.151c-1.024,0.946-2.541,1.398-4.315,1.398
		c-0.392,0-0.747-0.02-1.022-0.079v4.767H94.9V2.077z M97.875,8.105c0.256,0.059,0.551,0.079,1.004,0.079
		c1.596,0,2.581-0.808,2.581-2.148c0-1.221-0.848-1.949-2.363-1.949c-0.591,0-1.005,0.039-1.222,0.098V8.105z"/>
	<path fill="#FFFFFF" d="M106.344,2.077c0.964-0.157,2.382-0.275,3.997-0.275c1.971,0,3.35,0.295,4.296,1.044
		c0.808,0.631,1.24,1.576,1.24,2.798c0,1.674-1.202,2.836-2.345,3.25v0.06c0.927,0.374,1.438,1.241,1.773,2.462
		c0.414,1.517,0.808,3.25,1.063,3.762h-3.072c-0.197-0.394-0.532-1.458-0.906-3.093c-0.374-1.674-0.946-2.107-2.186-2.127h-0.889
		v5.22h-2.973V2.077z M109.316,7.79h1.184c1.496,0,2.383-0.749,2.383-1.911c0-1.202-0.827-1.832-2.206-1.832
		c-0.729,0-1.143,0.04-1.36,0.098V7.79z"/>
	<path fill="#FFFFFF" d="M121.035,1.9v13.277h-2.993V1.9H121.035z"/>
	<path fill="#FFFFFF" d="M123.635,15.177V1.9h3.506l2.759,4.865c0.787,1.399,1.557,3.053,2.166,4.551h0.04
		c-0.178-1.753-0.237-3.546-0.237-5.556V1.9h2.759v13.277h-3.152l-2.836-5.122c-0.787-1.418-1.675-3.132-2.304-4.688h-0.08
		c0.099,1.773,0.138,3.645,0.138,5.812v3.999H123.635z"/>
	<path fill="#FFFFFF" d="M136.397,13.562l6.323-9.101V4.382h-5.752V1.9h9.634v1.734l-6.187,8.982v0.079h6.283v2.482h-10.302V13.562z
		"/>
</g>
</svg>
